<?xml version="1.0" encoding="utf-8"?>
<!-- Generator: Adobe Illustrator 27.7.0, SVG Export Plug-In . SVG Version: 6.00 Build 0)  -->
<svg version="1.1" id="Capa_1" xmlns="http://www.w3.org/2000/svg" xmlns:xlink="http://www.w3.org/1999/xlink" x="0px" y="0px"
	 viewBox="0 0 195 21.5" style="enable-background:new 0 0 195 21.5;" xml:space="preserve">
<style type="text/css">
	.st0{fill:#AA935F;}
</style>
<path class="st0" d="M93.96,14.36c-3.48-1.47-6.99-2.59-10.52-3.42c-1.23-1.48-2.64-2.74-4.21-3.77c-1.5-3.6-6.57-6.03-10.32-5.75
	c-0.41,0.03-0.42,0.68,0,0.65c3.06-0.23,7.49,1.64,9.26,4.46c-0.8-0.45-1.63-0.84-2.5-1.17c-0.39-0.15-0.56,0.48-0.17,0.63
	c0.76,0.29,1.5,0.63,2.2,1.01c-3.12,0.12-7.4-1.37-7.95-4.69c-0.07-0.41-0.7-0.24-0.63,0.17c0.66,3.97,6.07,5.57,9.53,5.07
	c1.37,0.87,2.61,1.93,3.72,3.15C76.2,9.37,69.95,8.95,63.61,9.26c0.04-0.21-0.12-0.46-0.39-0.38c-0.52,0.16-1.03,0.33-1.54,0.5
	c-2.96,0.22-5.94,0.58-8.94,1.09c-2.14,0.36-4.29,0.76-6.45,1.16c-1.54-0.59-3.09-1.12-4.66-1.58c-0.93-1.54-2.79-2.21-4.41-2.81
	c-2.46-0.9-5.02-1.26-7.63-1.21c-0.21,0-0.31,0.17-0.31,0.33c-0.09,0.09-0.14,0.23-0.06,0.38c2.17,4.16,7.59,5.12,11.78,4.02
	c0.11-0.03,0.17-0.09,0.2-0.17c0.01,0,0.03,0.01,0.04,0.01c0.06,0.05,0.14,0.07,0.21,0.07c1.21,0.35,2.4,0.76,3.58,1.19
	c-11.11,2.03-22.43,3.84-33.31,0.54C9.54,8.4,5.44,6.89,1.3,5.66C1.14,5.61,0.94,5.72,0.9,5.89c-1.22,5.27,6.38,7.44,10.29,7.03
	c2.28,0.71,4.58,1.22,6.91,1.53c-1.55,0.17-3.06,0.52-4.52,1.02c-0.05-0.06-0.13-0.11-0.23-0.11c-4.17-0.2-8.09,0.88-11.62,3.11
	c-0.21,0.13-0.21,0.43,0,0.56c4.45,2.84,9.62,1.36,12.36-3.01c0.01-0.01,0.01-0.02,0.01-0.04c2.02-0.66,4.14-1.02,6.35-1.03
	c0.17,0,0.26-0.1,0.3-0.23c9.13,0.7,18.48-1.11,27.51-2.78c3.72-0.69,7.45-1.34,11.2-1.77c-1.72,0.62-3.41,1.3-5.08,2.05
	c-0.49,0.22-0.99,0.45-1.47,0.69c-0.07-0.11-0.19-0.18-0.34-0.13c-1.83,0.56-3.7,1.15-5.27,2.26c-1.6,1.12-2.49,2.66-3.27,4.41
	c-0.1,0.22,0.01,0.49,0.28,0.49c3.79-0.02,8.64-2.43,9.18-6.57c0.12-0.07,0.24-0.14,0.37-0.2c2.73-1.29,5.55-2.35,8.42-3.29
	c2.73-0.23,5.47-0.33,8.22-0.22c4.23,0.17,8.42,0.78,12.52,1.77c0.09,0.09,0.19,0.1,0.28,0.07c3.53,0.87,6.99,2.01,10.35,3.43
	C94.01,15.08,94.35,14.52,93.96,14.36z M29.91,6.69c1.89-0.01,3.74,0.18,5.57,0.69c1.58,0.44,3.83,1.08,5.09,2.39
	c-1.44-0.39-2.89-0.74-4.36-1.03c-0.41-0.08-0.58,0.55-0.17,0.63c1.37,0.26,2.71,0.59,4.05,0.94C36.38,11.04,31.91,10.14,29.91,6.69
	z M2.54,18.74c2.99-1.78,6.21-2.71,9.66-2.75c-1.07,0.45-2.11,0.98-3.12,1.61c-0.35,0.22-0.03,0.78,0.33,0.56
	c1.19-0.74,2.41-1.34,3.67-1.83C10.54,19.75,6.33,20.86,2.54,18.74z M6.21,11.74c-1.14-0.41-2.34-1.04-3.25-1.86
	c-0.65-0.59-2.55-3.15-0.85-3.3c0.62-0.05,1.71,0.54,2.28,0.75c0.94,0.35,1.84,0.75,2.7,1.26c1.52,0.89,2.72,2.05,3.65,3.51
	c-0.8-0.27-1.6-0.56-2.4-0.88c-0.39-0.16-0.56,0.47-0.17,0.63c0.43,0.18,0.86,0.32,1.29,0.48C8.36,12.29,7.27,12.12,6.21,11.74z
	 M44.82,19.26c0.76-1.6,1.66-2.96,3.22-3.95c1.01-0.65,2.14-1.09,3.29-1.47c-0.07,0.05-0.14,0.09-0.2,0.14
	c-1.14,0.89-1.94,2.02-3.22,2.76c-0.36,0.21-0.03,0.77,0.33,0.56c1.68-0.98,2.91-2.44,4.52-3.51
	C52.01,17.11,48.01,19.06,44.82,19.26z"/>
<path class="st0" d="M181.82,15.35c-0.1,0-0.18,0.05-0.23,0.11c-1.46-0.5-2.97-0.84-4.52-1.02c2.32-0.31,4.63-0.81,6.91-1.53
	c3.92,0.42,11.52-1.75,10.29-7.03c-0.04-0.17-0.24-0.28-0.4-0.23c-4.14,1.23-8.24,2.74-10.41,6.74c-10.88,3.3-22.21,1.49-33.31-0.54
	c1.19-0.43,2.38-0.83,3.59-1.19c0.07,0.01,0.15-0.01,0.21-0.07c0.01,0,0.03-0.01,0.04-0.01c0.03,0.08,0.1,0.14,0.2,0.17
	c4.2,1.1,9.62,0.15,11.78-4.02c0.08-0.15,0.03-0.29-0.06-0.38c0-0.16-0.1-0.33-0.31-0.33c-2.62-0.05-5.17,0.31-7.63,1.21
	c-1.63,0.6-3.49,1.27-4.41,2.81c-1.57,0.46-3.13,0.99-4.67,1.58c-2.16-0.4-4.31-0.8-6.45-1.16c-3-0.51-5.99-0.87-8.95-1.09
	c-0.51-0.17-1.02-0.34-1.53-0.5c-0.27-0.08-0.43,0.16-0.39,0.38c-6.34-0.32-12.59,0.11-18.76,1.44c1.11-1.22,2.35-2.28,3.72-3.15
	c3.46,0.49,8.87-1.1,9.53-5.07c0.07-0.41-0.56-0.59-0.63-0.17c-0.55,3.32-4.83,4.81-7.95,4.69c0.7-0.38,1.44-0.72,2.2-1.01
	c0.39-0.15,0.22-0.77-0.17-0.63c-0.87,0.33-1.7,0.72-2.5,1.17c1.78-2.82,6.22-4.69,9.26-4.46c0.42,0.03,0.42-0.62,0-0.65
	c-3.76-0.28-8.83,2.15-10.32,5.75c-1.57,1.03-2.98,2.29-4.21,3.77c-3.53,0.83-7.04,1.95-10.52,3.42c-0.38,0.16-0.05,0.72,0.33,0.56
	c3.36-1.42,6.82-2.56,10.34-3.43c0.09,0.03,0.2,0.02,0.29-0.07c3.95-0.95,7.97-1.55,12.05-1.74c2.91-0.14,5.81-0.04,8.7,0.2
	c2.86,0.93,5.68,1.99,8.4,3.28c0.13,0.06,0.25,0.13,0.37,0.2c0.53,4.14,5.39,6.55,9.18,6.57c0.27,0,0.38-0.27,0.28-0.49
	c-0.78-1.76-1.67-3.29-3.27-4.41c-1.57-1.11-3.45-1.7-5.27-2.26c-0.16-0.05-0.28,0.02-0.34,0.13c-0.48-0.24-0.98-0.47-1.47-0.69
	c-1.66-0.75-3.35-1.42-5.06-2.05c3.74,0.43,7.47,1.08,11.18,1.77c9.03,1.67,18.38,3.48,27.51,2.78c0.03,0.12,0.13,0.23,0.3,0.23
	c2.22,0.01,4.33,0.36,6.35,1.02c0.01,0.01,0.01,0.02,0.01,0.04c2.74,4.38,7.91,5.86,12.36,3.01c0.21-0.13,0.21-0.43,0-0.56
	C189.91,16.23,185.99,15.15,181.82,15.35z M165.26,6.68c-1.99,3.46-6.47,4.36-10.18,3.62c1.34-0.36,2.68-0.68,4.05-0.94
	c0.41-0.08,0.24-0.71-0.17-0.63c-1.49,0.29-2.96,0.64-4.41,1.04C156.77,7.2,162.16,6.66,165.26,6.68z M147.12,15.31
	c1.55,0.99,2.47,2.36,3.22,3.95c-3.18-0.21-7.19-2.15-7.94-5.47c1.61,1.07,2.83,2.52,4.52,3.51c0.36,0.21,0.69-0.35,0.33-0.56
	c-1.26-0.74-2.06-1.85-3.18-2.73c-0.08-0.06-0.16-0.11-0.24-0.16C144.97,14.22,146.1,14.66,147.12,15.31z M187.79,8.75
	c0.93-0.58,1.95-1.03,2.98-1.42c0.58-0.22,1.66-0.81,2.28-0.75c1.71,0.15-0.2,2.71-0.85,3.3c-0.78,0.7-1.73,1.21-2.69,1.62
	c-1.24,0.52-2.51,0.77-3.81,0.82c0.43-0.16,0.86-0.3,1.28-0.47c0.38-0.16,0.21-0.79-0.17-0.63c-0.8,0.33-1.6,0.62-2.41,0.89
	C185.28,10.74,186.39,9.62,187.79,8.75z M182.08,16.33c1.26,0.49,2.48,1.09,3.67,1.83c0.36,0.22,0.68-0.34,0.33-0.56
	c-1.01-0.63-2.05-1.16-3.12-1.61c3.45,0.03,6.68,0.97,9.66,2.75C188.82,20.86,184.62,19.75,182.08,16.33z"/>
</svg>
