<?xml version="1.0" encoding="utf-8"?>
<!-- Generator: Adobe Illustrator 27.7.0, SVG Export Plug-In . SVG Version: 6.00 Build 0)  -->
<svg version="1.1" id="Capa_1" xmlns="http://www.w3.org/2000/svg" xmlns:xlink="http://www.w3.org/1999/xlink" x="0px" y="0px"
	 viewBox="0 0 235.38 158.46" style="enable-background:new 0 0 235.38 158.46;" xml:space="preserve">
<style type="text/css">
	.st0{opacity:0.3;fill:url(#SVGID_1_);enable-background:new    ;}
</style>
<linearGradient id="SVGID_1_" gradientUnits="userSpaceOnUse" x1="-359.1064" y1="-185.4994" x2="-215.2101" y2="-67.6251" gradientTransform="matrix(0.5705 0.8213 0.8213 -0.5705 390.7153 253.4534)">
	<stop  offset="0" style="stop-color:#805835"/>
	<stop  offset="0.0243" style="stop-color:#89613B"/>
	<stop  offset="0.1198" style="stop-color:#AA8050"/>
	<stop  offset="0.2117" style="stop-color:#C1975F"/>
	<stop  offset="0.2977" style="stop-color:#CFA468"/>
	<stop  offset="0.3718" style="stop-color:#D4A96B"/>
</linearGradient>
<path class="st0" d="M9.02,151.3c-0.13-0.19-0.17-0.43-0.1-0.65c0.06-0.22,0.22-0.39,0.43-0.47c0.26-0.11,0.58-0.18,0.97-0.21
	c0.43-0.04,0.86-0.03,1.23-0.01c3.36,0.17,6.94-0.02,10.94-0.58c7.35-1.02,13.89-2.62,19.99-4.9c5.34-2,10.43-4.84,15.11-8.44
	c3.31-2.55,6.38-5.47,9.13-8.68c2.92-3.42,5.14-7.51,6.61-12.18c1.08-3.44,1.74-7.02,2.37-10.49l0.03-0.19
	c0.33-1.8,0.62-3.61,0.91-5.41c0.47-2.93,0.95-5.96,1.61-8.9l0.37-1.68c0.86-3.92,1.76-7.97,3.16-11.82
	c2.02-5.53,4.69-10.79,7.92-15.65c2.85-4.28,6.23-8.72,10.35-13.56c0.23-0.27,0.58-0.66,0.99-0.94c0.43-0.29,0.91-0.22,1.17,0.16
	c0.1,0.15,0.16,0.34,0.18,0.55c0.02,0.32-0.02,0.67-0.11,0.97c-0.98,3.29-1.29,6.72-1.59,10.03l-0.09,0.97
	c-0.19,2.04-0.26,4.11-0.32,6.11c-0.05,1.36-0.09,2.72-0.17,4.07c-0.44,7.42-1.6,13.81-3.52,19.54c-2.93,8.71-7.63,16.15-13.95,22.1
	c-1.61,1.52-3.18,3.02-4.62,4.68c-0.44,0.5-0.92,1.13-1.22,1.92c-1.55,4.19-3.79,8.29-7.27,13.31c-0.1,0.14-0.18,0.28-0.27,0.46
	l-0.32,0.56l0.31,0.13c0.6,0.26,1.02-0.04,1.3-0.24l0.14-0.1l2.75-1.77c2.71-1.74,5.51-3.54,8.24-5.36
	c5.15-3.43,10.65-7.42,16.79-12.2c1.92-1.49,3.78-3.09,5.55-4.75c1.27-1.2,2.27-2.55,2.97-4.02c1.96-4.14,4.12-9.11,5.32-14.56
	c0.48-2.18,0.86-4.54,1.16-7.21c0.34-2.96,0.43-5.98,0.52-8.9c0.05-1.52,0.09-3.04,0.17-4.56c0.17-3.21,0.45-7.45,1.15-11.72
	c0.87-5.31,2.61-10.83,5.31-16.88c2.34-5.24,5.58-10.61,10.18-16.9c2.4-3.28,4.8-6.56,7.19-9.85c0.93-1.27,1.71-2.65,2.47-3.99
	c0.22-0.39,0.44-0.78,0.67-1.16c1.16-1.99,2.32-3.98,3.49-5.97c0.19-0.32,0.42-0.68,0.7-0.96c0.18-0.18,0.41-0.27,0.64-0.25
	c0.23,0.02,0.44,0.15,0.58,0.35c0.06,0.09,0.11,0.18,0.14,0.29c0.17,0.6,0.05,1.23-0.07,1.84l-0.31,1.61
	c-0.15,0.77-0.29,1.55-0.45,2.32c-0.57,2.87-0.89,5.81-1.19,8.66l-0.08,0.73c-0.25,2.29-0.57,4.62-0.88,6.87l-0.42,3.09
	c-0.25,1.87-0.51,3.8-0.83,5.69c-1.12,6.62-2.6,14.39-5.01,21.92c-1.85,5.77-4.7,11.73-8.99,18.76c-2.28,3.74-4.91,7.25-7.19,10.25
	c-1.23,1.62-2.44,3.25-3.65,4.88l-1.69,2.26c-0.12,0.16-0.25,0.32-0.34,0.49c-0.48,0.92-0.85,1.9-1.21,2.84
	c-0.31,0.82-0.63,1.68-1.03,2.48l-0.14,0.29l0.3,0.12c0.71,0.3,1.01-0.11,1.15-0.3l0.07-0.08c3.49-3.91,7.1-8.13,11.35-13.29
	c3.98-4.83,8.65-10.42,13.62-15.6c6.84-7.12,13.36-12.71,19.94-17.1c1.1-0.74,2.19-1.49,3.28-2.25c1.57-1.1,3.19-2.23,4.84-3.27
	c6.74-4.24,13.95-7.65,21.42-10.15c9.05-3.02,18.24-5.55,27.32-7.53c0.85-0.18,1.69-0.39,2.53-0.6c0.81-0.2,1.61-0.4,2.42-0.58
	c0.58-0.13,1.22-0.2,1.92-0.22c0.24-0.01,0.44,0.09,0.57,0.29c0.04,0.06,0.08,0.13,0.11,0.21c0.09,0.24,0.13,0.58-0.16,0.86
	c-0.24,0.24-0.56,0.47-0.96,0.68c-6.09,3.28-11.75,7.28-16.81,11.88c-0.53,0.49-1.07,0.96-1.61,1.44c-1.21,1.08-2.47,2.19-3.63,3.36
	c-2.38,2.4-4.73,4.9-7,7.33l-1.04,1.11c-5.61,5.97-13.28,13.54-22.91,19.09c-3.89,2.24-8.08,4.17-12.82,5.9
	c-5.09,1.86-10.46,2.99-16.42,3.47c-1.9,0.15-3.88,0.22-5.62,0.28c-0.88,0.03-1.58,0.36-2.13,1L131.56,84
	c-0.85,0.99-1.71,1.97-2.55,2.97c-0.28,0.33-0.32,0.69-0.13,0.96c0.15,0.22,0.44,0.35,0.8,0.35l1.34,0.04
	c1.89,0.06,3.84,0.11,5.78,0.02c5.03-0.24,9.99-1.29,14.78-2.3l1.41-0.3c5.52-1.16,10.39-1.9,14.88-2.26
	c2.43-0.19,4.38-0.27,6.15-0.24c3.68,0.06,7.29,0.51,10.74,1.36c5.02,1.23,9.41,2.66,13.42,4.39l2.7,1.16
	c3.11,1.34,6.34,2.72,9.48,4.13c1.04,0.47,2.13,0.88,3.18,1.28c0.58,0.22,1.16,0.44,1.73,0.67c0.56,0.22,1.12,0.44,1.61,0.73
	c0.14,0.08,0.25,0.18,0.33,0.29c0.13,0.18,0.17,0.39,0.13,0.63c-0.08,0.5-0.43,0.7-0.71,0.79c-0.39,0.12-0.79,0.19-1.17,0.2
	c-6.25,0.17-12.47,1.11-17.74,2c-4.63,0.78-8.81,1.31-12.78,1.62c-3.84,0.3-7.94,0.52-11.94,0.11c-4.47-0.46-8.83-1.31-12.96-2.53
	c-6.66-1.98-13.26-4.39-19.6-7.18c-1.27-0.56-2.52-0.83-3.81-0.83c-2.06,0-4.15-0.06-6.18-0.12l-1.84-0.05
	c-0.58-0.01-1.18-0.02-1.72-0.15c-1.19-0.3-2.08,0.01-2.98,1.04c-6.39,7.29-13.81,14.74-23.34,23.42
	c-3.96,3.61-8.14,6.99-12.42,10.03c-0.34,0.24-0.67,0.5-1.01,0.75l-0.65,0.49l0.13,0.24l0.06,0.09c0.3,0.43,0.71,0.32,0.91,0.26
	c0.04-0.01,0.09-0.03,0.13-0.03c0.43-0.05,0.85-0.1,1.28-0.15c0.76-0.09,1.55-0.19,2.32-0.24c1-0.06,1.98-0.27,3.09-0.68
	c6.84-2.5,12.63-5.31,17.71-8.57c0.55-0.35,1.11-0.74,1.66-1.16c4.02-3.03,7.42-5.3,10.71-7.13c4.34-2.42,8.52-4.05,12.75-5
	c3.26-0.73,6.45-1.08,9.49-1.05c2.36,0.02,4.72,0.08,7.08,0.13c2.99,0.07,6.07,0.13,9.11,0.14c3.66,0.01,7.8,0.01,11.84-0.29
	c0.66-0.05,1.32-0.06,1.96-0.02c0.32,0.02,0.66,0.11,0.91,0.24c0.18,0.1,0.32,0.22,0.43,0.37c0.14,0.21,0.2,0.45,0.15,0.68
	c-0.05,0.26-0.21,0.49-0.46,0.66c-0.37,0.25-0.83,0.47-1.4,0.67c-1.56,0.55-2.93,1.41-4.06,2.19c-0.68,0.47-1.36,0.94-2.04,1.41
	c-2.31,1.61-4.7,3.27-7.21,4.66c-6.71,3.7-13.85,5.99-21.23,6.8c-3.5,0.39-7.12,0.53-11.04,0.44c-1.88-0.04-3.76-0.08-5.64-0.11
	s-3.76-0.07-5.64-0.11c-2.35-0.06-4.65,0.26-6.39,0.55c-0.86,0.14-1.55,0.34-2.17,0.64c-2.3,1.09-4.6,2.2-6.88,3.33l-0.13,0.06
	c-0.3,0.13-0.7,0.31-0.88,0.89l-0.1,0.34l0.89,0.11c0.4,0.05,0.8,0.1,1.2,0.15c0.24,0.03,0.48,0.07,0.73,0.11
	c0.3,0.05,0.6,0.1,0.9,0.13c4.38,0.55,8.85,0.79,13.29,0.7c1.56-0.03,3.12-0.11,4.68-0.19c1.35-0.07,2.69-0.13,4.04-0.17
	c3.29-0.09,7.17-0.13,11.05,0.29l0.93,0.1c1.49,0.16,2.99,0.32,4.48,0.52c4.02,0.55,7.87,1.43,11.46,2.61
	c3.39,1.12,6.39,2.24,9.17,3.44c3.83,1.64,7.83,2.97,11.71,4.25l2.3,0.76c0.47,0.16,0.95,0.31,1.41,0.5
	c0.32,0.13,0.62,0.31,0.85,0.51c0.09,0.08,0.17,0.16,0.23,0.25c0.3,0.43,0.18,0.93-0.29,1.29c-0.53,0.4-1.18,0.61-1.9,0.82
	l-0.74,0.22c-1.7,0.51-3.45,1.04-5.19,1.48c-4.96,1.26-9.82,2.11-14.45,2.55c-1.72,0.16-3.49,0.21-5.19,0.25l-1.14,0.03
	c-0.66,0.02-1.32,0.01-1.98-0.01c-0.61-0.01-1.23-0.02-1.84-0.01c-2.63,0.05-5.32-0.24-8.23-0.88c-6.33-1.41-11.78-3.62-16.68-6.76
	c-2.55-1.64-4.83-3.15-6.97-4.62c-2.64-1.82-5.54-3.32-8.61-4.46c-1.76-0.66-3.7-1.06-6.29-1.32c-3.07-0.3-5.88-0.37-8.59-0.19
	c-3.78,0.25-6.89,0.62-9.78,1.17c-0.27,0.05-0.54,0.11-0.81,0.16c-0.32,0.07-0.65,0.14-0.97,0.2c-2.51,0.45-4.84,1.39-7.13,2.88
	c-4.62,2.99-9.71,5.79-15.59,8.55c-10.1,4.76-20.66,8.1-31.4,9.93c-4.03,0.69-7.62,1.09-10.98,1.23c-0.72,0.03-1.45,0.12-2.15,0.21
	c-0.81,0.11-1.49-0.04-2.11-0.43l-1.1-0.69c-0.87-0.54-1.73-1.08-2.6-1.63c-0.17-0.11-0.34-0.25-0.48-0.42L9.02,151.3z M96.52,55.34
	l-0.2-0.23l-0.23,0.2c-0.57,0.5-0.97,1.11-1.37,1.7l-0.12,0.18c-4.6,6.82-8.07,14.57-10.32,23.05c-1.73,6.52-3.02,13.58-4.19,22.91
	c-0.06,0.48-0.13,0.97-0.2,1.45c-0.09,0.6-0.17,1.19-0.24,1.79l-0.02,0.12c-0.04,0.18-0.09,0.46,0.08,0.7
	c0.08,0.12,0.2,0.21,0.36,0.27l0.2,0.08l0.24-0.28c0.09-0.09,0.19-0.2,0.26-0.33l0.15-0.24c0.36-0.6,0.72-1.2,1.05-1.81
	c2.91-5.39,4.72-11.01,6.11-15.8c1.33-4.61,2.42-9.37,3.47-13.96c0.3-1.3,0.59-2.59,0.89-3.89l0.32-1.39
	c1.05-4.53,2.13-9.21,3.87-13.61c0.06-0.16,0.18-0.46-0.06-0.8l-0.01-0.01L96.52,55.34z M98.51,55.62c-0.94,1.03-1.4,2.27-1.78,3.45
	c-1.16,3.54-2.05,7.21-2.79,10.38c-0.39,1.67-0.78,3.35-1.16,5.03c-0.87,3.81-1.77,7.74-2.78,11.59c-1.71,6.49-4.01,14.1-8.16,21.24
	c-0.15,0.24-0.37,0.58-0.11,0.96l0.11,0.16l0.21-0.01c0.38-0.07,0.58-0.33,0.74-0.55l0.09-0.12c2.49-3.01,4.82-6.39,7.35-10.65
	c4.03-6.78,6.45-14.27,7.21-22.25c0.18-1.94,0.32-3.88,0.46-5.82c0.07-0.96,0.14-1.92,0.21-2.88c0.02-0.28,0.05-0.57,0.08-0.85
	l0.14-1.5c0.22-2.35,0.44-4.7,0.66-7.05c0.02-0.21,0.02-0.42,0.02-0.63l0.02-1.09L98.51,55.62z M172.52,142.32
	c-1.58,0.04-3.16-0.1-4.69-0.24c-1.08-0.1-2.19-0.2-3.3-0.23c-0.86-0.03-1.7-0.06-2.51-0.16l-1.71-0.21
	c-3.1-0.39-6.3-0.79-9.43-1.33c-5.79-1.01-11.44-2.29-16.8-3.82c-4.2-1.19-8.4-2.37-12.6-3.55c-0.06-0.02-0.13-0.04-0.19-0.06
	c-0.32-0.12-0.81-0.29-1.34,0.14l-0.24,0.2l0.2,0.23c0.42,0.49,0.94,0.8,1.45,1.1c0.17,0.1,0.34,0.2,0.51,0.31
	c3.42,2.23,6.54,4.21,9.95,5.74c5.73,2.58,11.93,4.04,18.93,4.47c2.58,0.16,5.32,0.21,8.38,0.16c1.94-0.03,4.02-0.19,6.19-0.48
	c1.71-0.23,3.43-0.57,5.09-0.89l1.55-0.3c0.31-0.03,0.8-0.09,0.88-0.73l0.04-0.35H172.52z M173.31,140.39
	c-0.26-0.31-0.6-0.42-0.9-0.52l-0.16-0.05c-2.83-0.99-5.56-2.08-7.61-2.93c-2.38-0.97-4.77-1.86-6.8-2.59
	c-5.95-2.16-12.48-3.41-20.53-3.94c-3.39-0.22-6.82-0.12-10.14-0.01c-1.23,0.04-2.46,0.08-3.69,0.1c-0.53,0.01-1.06,0.08-1.61,0.16
	c-0.26,0.04-0.53,0.07-0.8,0.1l-0.65,0.07l0.48,0.45c0.44,0.41,0.88,0.51,1.28,0.6c0.1,0.02,0.19,0.04,0.28,0.07
	c0.89,0.25,1.77,0.49,2.66,0.73c1.74,0.48,3.48,0.95,5.21,1.47c7.68,2.29,14.86,3.97,21.95,5.14c6.92,1.14,13.37,1.74,19.74,1.84
	c0.06,0,0.13,0.01,0.19,0.01c0.3,0.03,0.7,0.06,1.09-0.29l0.21-0.2L173.31,140.39z M166.47,106.9c-0.4,0.01-0.81,0.01-1.21,0.02
	c-0.91,0.01-1.84,0.01-2.76,0.09c-2.14,0.17-4.26,0.15-6.3-0.06c-2.52-0.27-5.08-0.35-7.56-0.43l-0.99-0.03
	c-4.54-0.15-9.05,0.41-13.38,1.66c-5.26,1.52-9.58,3.53-13.21,6.16c-0.05,0.04-0.11,0.07-0.16,0.11c-0.25,0.16-0.64,0.39-0.63,0.92
	v0.15l0.12,0.09c0.44,0.34,0.87,0.13,1.12,0c0.06-0.03,0.12-0.06,0.18-0.09c4.15-1.55,8.65-2.49,13.75-2.88
	c1.84-0.14,3.67-0.25,5.51-0.36c1-0.06,2-0.12,3.01-0.19c5.17-0.34,10.5-1.11,15.86-2.29c2.28-0.51,4.36-1.07,6.34-1.71
	c0.24-0.07,0.74-0.22,0.63-0.91l-0.04-0.26L166.47,106.9z M163,110.28c-0.57-0.07-1.08,0.07-1.57,0.21
	c-0.14,0.04-0.28,0.08-0.42,0.11c-5.36,1.28-11.16,2.16-17.71,2.67c-1.63,0.13-3.25,0.22-4.88,0.32c-1.45,0.08-2.9,0.17-4.35,0.28
	c-3.61,0.27-7.33,1.05-11.07,2.32c-0.29,0.09-0.66,0.19-0.73,0.64l-0.02,0.12l0.07,0.1c0.23,0.32,0.56,0.3,0.76,0.3h0.12l2.06,0.07
	c2.34,0.08,4.68,0.15,7.02,0.21c1.41,0.03,2.82,0.06,4.23,0.08c1.2,0.02,2.39,0.04,3.58,0.07c1.55,0.03,3.22-0.11,5.12-0.43
	c6.23-1.07,12.08-3.06,17.39-5.91c0.27-0.14,0.6-0.3,0.67-0.81l0.04-0.3L163,110.28z M140.93,12.17c-0.6,0.38-0.86,0.86-1.1,1.28
	l-0.09,0.17c-1.89,3.33-4.11,6.76-6.8,10.5c-2.2,3.06-4.26,6.22-6,8.91c-3.5,5.44-5.82,11.56-7.08,18.69
	c-0.93,5.3-1.44,10.54-1.52,15.58c-0.03,1.79-0.08,3.57-0.13,5.36l-0.03,1.12c-0.04,1.26-0.07,2.56-0.32,3.81
	c-0.09,0.45-0.1,0.91-0.11,1.32c0,0.09-0.01,0.18-0.02,0.27c-0.03,0.36-0.06,0.82,0.13,1.45l0.24,0.8l0.68-1.61
	c0.21-0.48,0.38-0.87,0.53-1.27c1.2-3.08,2.21-6.17,3.03-9.18c0.68-2.51,1.34-5.03,2.01-7.54c0.65-2.46,1.31-4.93,1.97-7.39
	l0.23-0.84c1.46-5.41,2.96-11.01,4.92-16.37c1.33-3.63,2.86-7.26,4.34-10.76l1.14-2.7c1.31-3.13,2.61-6.27,3.89-9.41l0.12-0.27
	c0.2-0.46,0.43-0.98,0.42-1.66v-0.55L140.93,12.17z M142.73,14.36c-0.03-0.04-0.07-0.09-0.11-0.13l-0.26-0.28l-0.21,0.31
	c-0.04,0.06-0.08,0.11-0.12,0.16c-0.09,0.12-0.18,0.23-0.23,0.37c-1.31,3.45-2.78,6.9-4.21,10.24c-0.76,1.79-1.53,3.57-2.27,5.37
	c-1.69,4.09-3.84,9.52-5.45,15.26c-1.61,5.76-2.91,10.5-4.06,14.91l-0.53,2.04c-1.63,6.24-3.32,12.7-5.73,18.91l0.52,0.3l0.17-0.22
	c0.13-0.16,0.26-0.32,0.38-0.49l1.26-1.79c1.05-1.48,2.09-2.97,3.11-4.47c3.85-5.69,7.11-12.07,9.7-18.96
	c2.13-5.67,3.79-11.7,5.08-18.43c0.62-3.26,1.19-6.66,1.73-10.41c0.35-2.42,0.64-4.89,0.91-7.28c0.12-1,0.23-2.01,0.35-3.01
	l0.02-0.13c0.04-0.33,0.08-0.66,0.08-0.99c0-0.09,0.01-0.18,0.03-0.27C142.93,15.08,142.98,14.72,142.73,14.36z M204.8,94.39
	c-0.06-0.08-0.13-0.18-0.25-0.23c-1.12-0.5-2.23-1-3.35-1.5c-2.93-1.32-5.95-2.68-8.96-3.95c-2.58-1.09-5.45-1.8-8.53-2.12
	c-2.6-0.27-4.74-0.37-6.75-0.3c-2.96,0.1-5.75,0.38-8.53,0.87c-2.69,0.47-5.42,1.02-8.05,1.55c-4.2,0.84-8.54,1.71-12.85,2.3
	l-0.11,0.01c-0.24,0.02-0.68,0.06-0.84,0.54l-0.1,0.29l0.4,0.13c0.1,0.03,0.19,0.06,0.28,0.08c4.71,0.94,9.55,1.3,14.23,1.66
	l0.96,0.07c2.49,0.19,5.02,0.24,7.47,0.29c1.03,0.02,2.06,0.04,3.08,0.07c2.14,0.06,4.31-0.01,6.41-0.08
	c1.08-0.04,2.16-0.07,3.24-0.09c4.97-0.08,9.85,0.1,13.98,0.28c0.78,0.03,1.58,0.12,2.35,0.2l0.71,0.08
	c1.17,0.12,2.34,0.24,3.53,0.37l2.26,0.24l-0.51-0.66L204.8,94.39z M208.16,97.06c-0.12-0.06-0.21-0.12-0.29-0.17
	c-0.16-0.1-0.29-0.17-0.44-0.2c-2.44-0.4-5.21-0.86-7.95-1.06c-0.35-0.03-0.7-0.05-1.05-0.07c-0.61-0.03-1.22-0.07-1.83-0.14
	c-3.77-0.42-7.88-0.53-12.57-0.36c-1.29,0.05-2.58,0.08-3.87,0.11c-1.74,0.04-3.47,0.09-5.21,0.17c-5.03,0.23-10.13-0.2-15.07-0.61
	l-1.22-0.1c-1.6-0.13-3.23-0.33-4.81-0.52c-0.62-0.08-1.24-0.15-1.86-0.22c-0.77-0.09-1.55-0.19-2.32-0.28l-2.03-0.25l0.73,0.65
	c0.48,0.43,1.04,0.74,1.81,1.03c4.19,1.57,8.04,2.82,11.78,3.82c5.88,1.58,11.13,2.31,16.05,2.22c0.7-0.01,1.4-0.05,2.09-0.09
	c0.75-0.04,1.51-0.08,2.26-0.09c3.18-0.03,6.32-0.44,9.26-0.86c2.74-0.39,5.48-0.8,8.22-1.21l4.01-0.6c0.9-0.13,4.23-0.62,4.23-0.62
	l0.92-0.13L208.16,97.06z M211.29,32.04c-0.21,0.02-0.36,0.03-0.46,0.04c-0.19,0.01-0.29,0.02-0.4,0.08
	c-5.7,2.95-12.31,6.44-18.47,10.59c-5.2,3.5-10.28,7.42-14.62,10.82c-7.86,6.15-14.64,10.83-21.33,14.75
	c-3.5,2.05-8.18,4.64-13.32,6.51c-0.11,0.04-0.22,0.07-0.33,0.11c-0.41,0.13-0.88,0.27-1.24,0.66l-0.27,0.28l0.34,0.19
	c0.17,0.11,0.29,0.19,0.44,0.19c0.55-0.01,1.1-0.02,1.65-0.06c0.28-0.02,0.56-0.06,0.84-0.1c0.26-0.03,0.52-0.07,0.79-0.09
	c4.92-0.4,9.77-1.45,14.43-3.1c3.51-1.25,6.94-2.8,10.25-4.31l0.15-0.07c5.38-2.45,10.3-6.07,15.95-11.75
	c1.4-1.41,2.78-2.84,4.16-4.28c1.02-1.06,2.03-2.11,3.06-3.16c2.8-2.86,5.83-5.58,8.76-8.22c1.43-1.29,2.87-2.58,4.28-3.89
	c0.21-0.19,0.44-0.37,0.66-0.55c0.15-0.12,0.31-0.24,0.46-0.37l5.21-4.39L211.29,32.04z M209.64,30.48
	c-0.73,0.07-1.28,0.22-1.82,0.36l-0.31,0.08c-5.55,1.42-10.96,3.35-15.59,5.05c-5.14,1.88-9.87,4.4-13.81,6.61
	c-7.39,4.14-14.54,9.29-21.27,15.3c-5.41,4.83-10.54,9.84-15.24,14.88c-0.21,0.2-0.5,0.49-0.29,0.95l0.06,0.14l0.15,0.03
	c0.47,0.1,0.87-0.08,1.22-0.23c0.1-0.04,0.2-0.09,0.3-0.12c2.52-0.92,5.13-2.1,7.98-3.63c7.67-4.12,15.37-9.2,23.55-15.52
	c4.49-3.47,8.47-6.49,12.15-9.25c7.39-5.52,15.4-9.88,21.55-13.07c0.09-0.05,0.19-0.09,0.29-0.14c0.41-0.19,0.87-0.41,1.33-0.93
	l0.5-0.57L209.64,30.48z"/>
</svg>
