<?xml version="1.0" encoding="utf-8"?>
<!-- Generator: Adobe Illustrator 27.7.0, SVG Export Plug-In . SVG Version: 6.00 Build 0)  -->
<svg version="1.1" id="Capa_1" xmlns="http://www.w3.org/2000/svg" xmlns:xlink="http://www.w3.org/1999/xlink" x="0px" y="0px"
	 viewBox="0 0 195 21.5" style="enable-background:new 0 0 195 21.5;" xml:space="preserve">
<style type="text/css">
	.st0{fill:#AA935F;}
</style>
<path class="st0" d="M90.77,8.94c-1.13,0-2.06,0.44-2.38,1.05H59.8c-0.38-0.02-0.75-0.05-1.13-0.06c-0.07,0-0.13,0.02-0.18,0.06h-14
	c-1.54-0.01-3.15-0.13-4.64-0.54c-1.08-0.29-2.14-0.98-2.47-2.12c-0.22-0.76,0.07-1.46,0.52-2.08c0.17-0.24,0.37-0.46,0.59-0.65
	c0.12-0.15,0.26-0.27,0.4-0.36c-0.02,0.03-0.04,0.05-0.05,0.09c-0.05,0.13,0.03,0.3,0.15,0.37c0.14,0.07,0.27,0.12,0.4,0.15
	c0,0.09,0.01,0.19,0.08,0.25c0.84,0.67,2.05-0.21,1.46-1.2c-1.03-1.71-3.24,0.34-3.84,1.36c-0.98,1.64-0.09,3.53,1.49,4.4
	c0.24,0.13,0.49,0.24,0.75,0.33h-11.5c-4.93-1.41-9.19-4.11-12.58-7.96c-0.18-0.21-0.57-0.05-0.55,0.23
	c0.32,4.95,4.62,6.85,8.91,7.73h-6.83C13.67,9.98-1.76,8.81,0.77,15.63c0.77,2.06,4.88,2.13,6.07,0.47
	c1.12-1.56-1.18-2.03-2.15-0.74c-0.1,0.13-0.03,0.38,0.12,0.44c0.49,0.24,0.46,0.23,1,0.24c0.09,0,0.16-0.03,0.21-0.08
	c0.03,0.57-0.69,0.77-2.19,0.58c-1.68-0.11-2.5-0.69-2.44-1.74c-0.22-0.67-0.06-1.11,0.28-1.67c0.78-1.31,2.73-1.72,4.14-2
	c1.91-0.38,3.87-0.49,5.84-0.52v0.02h11.48c-1.7,0.52-3.19,1.46-3.68,3.18c-0.95,3.35,2.43,5.48,5.35,5.38
	c0.39-0.01,0.41-0.5,0.09-0.64c-0.65-0.26-1.71-0.65-2.14-1.26c-0.65-0.93-0.52-2.08-0.21-3.1c0.45-1.46,1.3-2.76,2.61-3.36
	c0.81-0.12,1.63-0.16,2.4-0.19c0.03,0,0.06-0.01,0.09-0.02h20.25c-1.56,0.5-3.06,1.28-4.18,2.46c-0.67,0.71-1.83,2.44-0.79,3.26
	c0.12,0.1,0.25,0.12,0.39,0.05c1.48-0.71,2.75-2.21,4.09-3.16c1.63-1.15,3.36-2.07,5.29-2.61c0.01,0,0.01-0.01,0.02-0.01h7.11
	c4.33,0.24,8.4,1.42,12.2,3.53c-0.01,0.17,0.1,0.33,0.31,0.32c0.01,0,0.02,0,0.03,0c0.43,0.86,0.33,1.86,0.94,2.67
	c0.43,0.57,1.06,0.95,1.69,1.26c1.27,0.61,3.18,1.32,4.36,0.14c1.13-1.12,0.26-2.42-0.82-3.16c-1.68-1.15-3.76-1.62-5.78-1.57
	c-2.58-1.48-5.3-2.55-8.14-3.19h23.7c0.14,0.77,1.17,1.35,2.48,1.35c1.41,0,2.51-0.67,2.51-1.52S92.18,8.94,90.77,8.94z M73.6,16.33
	c0.03,0.05,0.08,0.09,0.12,0.14c0.02,0.06,0.04,0.13,0.07,0.19c0.04,0.07,0.09,0.13,0.14,0.2c-0.02-0.03-0.05-0.06-0.08-0.09
	C73.74,16.63,73.67,16.49,73.6,16.33z M74,14.94c0-0.03-0.01-0.05-0.02-0.07c0.21,0.08,0.42,0.15,0.63,0.23
	c-0.09,0.01-0.17,0.03-0.25,0.06c-0.11,0.01-0.22,0.02-0.32,0.05C74.03,15.12,74,15.03,74,14.94z M74.78,16.41
	c-0.05-0.03-0.1-0.06-0.15-0.1c0.01-0.03,0-0.05,0.01-0.08c-0.02-0.07-0.02-0.11-0.03-0.17C74.66,16.17,74.71,16.29,74.78,16.41z
	 M77.69,17.26c0-0.17-0.01-0.34-0.01-0.51c0.06,0.04,0.12,0.09,0.18,0.14C77.8,17.01,77.74,17.14,77.69,17.26z M75.04,17.75
	c0.72,0.34,1.57,0.51,2.25,0.6c0.1,0.01,0.18-0.01,0.25-0.05c0,0.07,0.01,0.15,0.02,0.22c-0.11-0.01-0.21-0.02-0.32-0.05
	C76.56,18.41,75.74,18.15,75.04,17.75z M78.88,18.09c-0.05,0.04-0.1,0.06-0.14,0.09c0.27-0.53,0.24-1.21-0.12-1.76
	c-0.13-0.2-0.3-0.36-0.49-0.51c0.02,0.01,0.04,0.02,0.06,0.03C79.01,16.36,79.24,17.07,78.88,18.09z M73.3,14.47
	c0.03,0.09,0.08,0.17,0.18,0.21c-0.08,0.05-0.14,0.13-0.14,0.26c0.01,0.26,0.05,0.51,0.12,0.74c0,0.02-0.02,0.03-0.02,0.04
	c-0.02,0.09-0.01,0.17,0,0.25c-0.14-0.45-0.22-0.93-0.37-1.39c0.05-0.03,0.09-0.07,0.12-0.12C73.24,14.47,73.27,14.46,73.3,14.47z
	 M15.46,3.21c2.6,2.75,5.68,4.88,9.14,6.32C20.64,8.86,16.29,7.42,15.46,3.21z M21.76,14.56c-0.43,1.9,0.16,3.02,1.42,3.85
	c-1.07-0.23-2.05-0.75-2.67-1.72c-0.9-1.41-0.63-3.14,0.61-4.24c0.69-0.61,1.53-1,2.42-1.27C22.66,12.06,22.06,13.27,21.76,14.56z
	 M45.47,13.9c-0.33,0.27-1.35,1.42-1.73,1.43c-1.45,0.04,0.74-2.07,1.06-2.33c1.43-1.18,3.2-1.83,5-2.2
	c0.11-0.02,0.18-0.09,0.21-0.17h0.75C48.83,11.44,47.12,12.59,45.47,13.9z"/>
<path class="st0" d="M177.42,9.99h-6.83c4.28-0.88,8.58-2.78,8.9-7.73c0.02-0.28-0.37-0.44-0.55-0.23
	c-3.39,3.85-7.65,6.55-12.58,7.96h-11.5c0.19-0.07,0.39-0.15,0.57-0.24c1.68-0.82,2.69-2.78,1.67-4.5c-0.62-1.04-2.6-2.92-3.75-1.48
	c-0.77,0.96,0.45,2.06,1.36,1.32c0.07-0.06,0.09-0.15,0.08-0.24c0.13-0.03,0.26-0.08,0.4-0.16c0.12-0.06,0.2-0.24,0.15-0.37
	c-0.01-0.04-0.04-0.06-0.05-0.09c0.14,0.09,0.28,0.21,0.4,0.36c0.11,0.11,0.22,0.22,0.33,0.32c0.59,0.63,1.04,1.53,0.78,2.41
	c-0.33,1.13-1.4,1.83-2.47,2.12c-1.49,0.4-3.1,0.52-4.64,0.54h-14c-0.05-0.03-0.1-0.06-0.18-0.06c-0.38,0.01-0.75,0.03-1.13,0.06
	h-28.59c-0.32-0.61-1.25-1.05-2.38-1.05c-1.41,0-2.51,0.67-2.51,1.52s1.1,1.52,2.51,1.52c1.31,0,2.34-0.58,2.48-1.35h23.69
	c-2.84,0.63-5.56,1.7-8.14,3.19c-2.02-0.05-4.1,0.41-5.78,1.57c-1.08,0.74-1.95,2.04-0.82,3.16c1.18,1.18,3.09,0.47,4.36-0.14
	c0.63-0.3,1.26-0.69,1.69-1.26c0.61-0.8,0.51-1.8,0.94-2.67c0.01,0,0.02,0,0.03,0c0.21,0.01,0.32-0.15,0.31-0.32
	c3.8-2.11,7.87-3.29,12.2-3.53h7.11c0.01,0,0.01,0.01,0.02,0.01c1.93,0.54,3.66,1.45,5.29,2.61c1.35,0.95,2.61,2.45,4.09,3.16
	c0.15,0.07,0.27,0.05,0.39-0.05c1.05-0.83-0.12-2.56-0.79-3.26c-1.12-1.18-2.62-1.96-4.18-2.46h20.25c0.03,0.01,0.06,0.02,0.09,0.02
	c0.77,0.02,1.59,0.07,2.4,0.19c1.31,0.6,2.19,1.9,2.61,3.36c0.29,1.01,0.57,2.17-0.21,3.1c-0.52,0.62-1.42,0.97-2.14,1.26
	c-0.33,0.13-0.3,0.63,0.09,0.64c2.92,0.1,6.31-2.03,5.35-5.38c-0.49-1.72-1.98-2.66-3.68-3.18h11.48v-0.02
	c1.97,0.03,3.93,0.14,5.84,0.53c1.25,0.25,2.8,0.58,3.76,1.45c0.83,0.74,0.81,1.19,0.65,2.06c0.1,1.13-0.71,1.76-2.44,1.9
	c-1.5,0.18-2.23-0.02-2.19-0.58c0.05,0.05,0.12,0.08,0.21,0.08c0.55-0.01,0.51-0.01,1-0.24c0.15-0.07,0.22-0.31,0.12-0.44
	c-0.92-1.21-3.17-0.98-2.18,0.71c1.05,1.79,5.35,1.56,6.1-0.44C195.94,8.81,180.49,9.98,177.42,9.99z M116.5,16.78
	c0,0.16-0.01,0.32-0.01,0.48c-0.04-0.12-0.1-0.24-0.16-0.36C116.38,16.86,116.44,16.82,116.5,16.78z M119.42,16.41
	c0,0-0.02,0.01-0.02,0.01c0.09-0.16,0.16-0.32,0.21-0.47c0.03,0.07,0.05,0.15,0.04,0.25C119.59,16.27,119.5,16.34,119.42,16.41z
	 M120.14,15.26c-0.05-0.01-0.1-0.02-0.14-0.03c-0.01-0.01-0.02-0.01-0.02-0.02c-0.13-0.07-0.27-0.1-0.4-0.11
	c0.21-0.08,0.43-0.16,0.64-0.23c-0.01,0.02-0.02,0.05-0.02,0.07C120.18,15.05,120.15,15.15,120.14,15.26z M116,15.95
	c0.02-0.01,0.04-0.02,0.05-0.03c-0.18,0.15-0.35,0.31-0.48,0.51c-0.36,0.55-0.39,1.23-0.12,1.76c-0.05-0.03-0.1-0.06-0.14-0.09
	C114.94,17.07,115.17,16.36,116,15.95z M120.54,16.51c-0.62,1.1-2.39,1.85-3.6,1.96c-0.11,0.03-0.21,0.04-0.32,0.05
	c0.01-0.08,0.01-0.15,0.02-0.22c0.07,0.04,0.15,0.07,0.25,0.05c1.12-0.15,2.37-0.44,3.18-1.28c0.16-0.17,0.28-0.37,0.36-0.57
	c0.09-0.1,0.17-0.2,0.22-0.31c0.1-0.22,0.11-0.4,0.06-0.53c0.07-0.23,0.11-0.46,0.12-0.71c0-0.13-0.06-0.21-0.14-0.26
	c0.1-0.04,0.16-0.12,0.18-0.21c0.03,0,0.06,0,0.1,0c0.03,0.05,0.07,0.09,0.12,0.12C120.9,15.23,120.88,15.92,120.54,16.51z
	 M178.72,3.21c-0.83,4.2-5.18,5.65-9.14,6.32C173.04,8.08,176.12,5.96,178.72,3.21z M144.39,10.81c1.63,0.33,3.21,0.89,4.58,1.86
	c0.27,0.19,3.07,2.72,1.48,2.67c-0.39-0.01-1.4-1.16-1.73-1.43c-1.65-1.31-3.37-2.47-5.28-3.27h0.75
	C144.21,10.72,144.28,10.78,144.39,10.81z M173.67,16.69c-0.63,0.98-1.61,1.5-2.67,1.72c1.26-0.83,1.86-1.96,1.42-3.86
	c-0.3-1.29-0.89-2.5-1.77-3.37c0.89,0.27,1.73,0.66,2.41,1.27C174.31,13.56,174.58,15.27,173.67,16.69z"/>
</svg>
