<?xml version="1.0" encoding="utf-8"?>
<!-- Generator: Adobe Illustrator 27.7.0, SVG Export Plug-In . SVG Version: 6.00 Build 0)  -->
<svg version="1.1" id="Capa_1" xmlns="http://www.w3.org/2000/svg" xmlns:xlink="http://www.w3.org/1999/xlink" x="0px" y="0px"
	 viewBox="0 0 147.02 243.2" style="enable-background:new 0 0 147.02 243.2;" xml:space="preserve">
<style type="text/css">
	.st0{fill:url(#SVGID_1_);}
</style>
<linearGradient id="SVGID_1_" gradientUnits="userSpaceOnUse" x1="309.5451" y1="36.0605" x2="450.5598" y2="151.5743" gradientTransform="matrix(-0.9881 -0.1536 0.1536 -0.9881 439.4196 267.5061)">
	<stop  offset="0" style="stop-color:#805835"/>
	<stop  offset="0.2443" style="stop-color:#9D7448"/>
	<stop  offset="0.5507" style="stop-color:#BB915B"/>
	<stop  offset="0.8134" style="stop-color:#CDA367"/>
	<stop  offset="1" style="stop-color:#D4A96B"/>
</linearGradient>
<path class="st0" d="M72.91,243.18c-0.2-0.06-0.4-0.14-0.57-0.25c-0.85-0.53-1.7-1.06-2.55-1.59l-1.08-0.68
	c-0.61-0.38-1.03-0.92-1.28-1.68c-0.22-0.66-0.45-1.34-0.73-1.99c-1.32-3.02-2.51-6.36-3.63-10.2c-2.99-10.25-4.58-20.99-4.71-31.93
	c-0.08-6.36,0.2-12.06,0.85-17.4c0.32-2.65,0.15-5.11-0.52-7.52c-0.09-0.31-0.17-0.63-0.25-0.94c-0.06-0.26-0.13-0.52-0.2-0.78
	c-0.75-2.78-1.76-5.68-3.16-9.12c-1.01-2.47-2.27-4.92-3.85-7.49c-1.34-2.17-2.53-3.7-3.86-4.97c-2.32-2.22-4.89-4.12-7.62-5.67
	c-2.21-1.25-4.52-2.61-7.06-4.16c-4.86-2.97-9.15-6.82-13.11-11.8c-1.82-2.29-3.23-4.54-4.31-6.87c-0.25-0.55-0.53-1.08-0.8-1.62
	c-0.29-0.58-0.59-1.15-0.85-1.74l-0.46-1.02c-0.7-1.52-1.41-3.1-2.01-4.68c-1.61-4.27-2.94-8.92-3.95-13.83
	c-0.36-1.72-0.65-3.49-0.92-5.21l-0.12-0.75c-0.12-0.73-0.21-1.39-0.09-2.03c0.11-0.57,0.5-0.89,1.01-0.81
	c0.1,0.02,0.21,0.05,0.32,0.1c0.27,0.12,0.56,0.31,0.81,0.53c0.37,0.32,0.71,0.68,1.05,1.03l1.66,1.7c2.79,2.86,5.68,5.82,8.77,8.49
	c2.25,1.94,4.52,4.1,6.96,6.61c2.58,2.65,5.01,5.67,7.21,8.98c0.82,1.22,1.6,2.47,2.38,3.72l0.49,0.78
	c2.02,3.24,3.66,6.67,4.99,9.61c0.55,1.2,1.06,2.42,1.58,3.64c0.6,1.41,1.2,2.81,1.84,4.2c1.83,3.95,3.95,7.79,6.32,11.41
	c0.16,0.25,0.33,0.49,0.5,0.73c0.14,0.2,0.28,0.39,0.41,0.59c0.22,0.33,0.43,0.66,0.64,0.99l0.48,0.74l0.26-0.24
	c0.44-0.4,0.42-0.84,0.41-1.15v-0.14c0.01-2.5,0-5-0.02-7.49c-0.01-0.67-0.12-1.36-0.37-2.19c-0.5-1.65-1.2-3.81-2.26-5.86
	c-0.84-1.64-1.68-3.28-2.52-4.92c-0.84-1.64-1.67-3.28-2.52-4.92c-1.76-3.42-3.18-6.66-4.35-9.91c-2.45-6.85-3.5-14.13-3.11-21.63
	c0.14-2.8,0.58-5.62,1.01-8.35c0.12-0.8,0.25-1.6,0.37-2.41c0.2-1.33,0.37-2.9,0.19-4.52c-0.07-0.59-0.07-1.08-0.01-1.52
	c0.04-0.3,0.17-0.53,0.38-0.69c0.19-0.14,0.43-0.19,0.67-0.16c0.18,0.03,0.35,0.1,0.51,0.22c0.23,0.16,0.45,0.42,0.6,0.7
	c0.3,0.55,0.58,1.13,0.82,1.74c1.46,3.68,3.25,7.34,4.82,10.56c1.31,2.67,2.69,5.37,4.03,7.97c1.06,2.06,2.12,4.12,3.15,6.19
	c1.33,2.67,2.39,5.63,3.14,8.82c0.98,4.14,1.33,8.51,1.06,13.38c-0.2,3.69-0.74,7.66-1.69,12.5c-0.13,0.66-0.24,1.32-0.31,1.96
	c-0.7,5.87-0.68,12.18,0.05,19.28c0.12,1.16,0.35,2.11,0.73,3.01c0.29,0.7,0.54,1.44,0.79,2.15c0.14,0.4,0.27,0.8,0.41,1.19
	c0.01,0.04,0.02,0.08,0.03,0.13c0.04,0.2,0.11,0.61,0.62,0.69l0.1,0.01l0.27,0.01l0.15-0.78c0.08-0.4,0.16-0.8,0.23-1.21
	c0.85-5.08,2.03-10.21,3.52-15.25c3.57-12.12,6.95-21.85,10.63-30.61c0.52-1.23,0.41-2.15-0.36-3.07c-0.35-0.42-0.62-0.94-0.87-1.45
	l-0.84-1.6c-0.92-1.76-1.88-3.58-2.76-5.39c-0.55-1.14-1.33-2.12-2.37-3c-5.18-4.39-10.14-9.16-14.74-14.19
	c-2.85-3.11-5.47-6.59-7.79-10.33c-2.08-3.35-3.64-7.06-5.02-10.57c-1.43-3.64-2.76-7.55-4.05-11.96
	c-1.48-5.02-3.32-10.91-5.85-16.49c-0.15-0.33-0.26-0.72-0.33-1.11c-0.04-0.28-0.01-0.68,0.39-0.97c0.19-0.13,0.4-0.19,0.61-0.15
	c0.14,0.02,0.27,0.08,0.4,0.16c0.46,0.31,0.89,0.71,1.33,1.11c0.45,0.41,0.89,0.82,1.33,1.24c0.8,0.76,1.63,1.54,2.49,2.26
	c2.59,2.17,5.19,4.41,7.71,6.58l2.18,1.88c3.25,2.8,6.4,6.05,9.63,9.94c2.22,2.68,4.17,5.66,5.8,8.88c0.78,1.55,1.55,3.3,2.42,5.52
	c1.61,4.11,3.05,8.72,4.39,14.08l0.34,1.37c1.16,4.66,2.37,9.48,4.31,14.02c0.75,1.74,1.64,3.44,2.5,5.08l0.61,1.16
	c0.16,0.32,0.4,0.52,0.66,0.56c0.33,0.05,0.62-0.15,0.79-0.53c0.51-1.17,1.02-2.35,1.52-3.52l0.81-1.89
	c0.33-0.76,0.32-1.51-0.03-2.3c-0.69-1.56-1.48-3.33-2.16-5.07c-2.14-5.46-3.44-10.68-3.99-15.96c-0.51-4.92-0.6-9.44-0.3-13.83
	c0.76-10.88,4.14-20.88,7-28.38l0.53-1.39c1.16-3.04,2.36-6.18,3.45-9.31c0.54-1.53,0.98-3.11,1.41-4.64
	c0.19-0.68,0.38-1.36,0.58-2.04c1.88-6.43,2.98-13.12,3.26-19.9c0.02-0.44,0.08-0.82,0.19-1.14c0.13-0.38,0.45-0.49,0.69-0.51
	c0.08-0.01,0.16-0.01,0.23,0c0.23,0.04,0.41,0.17,0.5,0.38c0.28,0.62,0.5,1.23,0.63,1.79c0.19,0.79,0.36,1.59,0.53,2.38
	c0.18,0.83,0.36,1.66,0.56,2.49c2.15,8.85,3.86,18.04,5.08,27.3c1.01,7.66,1.09,15.48,0.25,23.23c-0.21,1.9-0.51,3.81-0.8,5.67
	c-0.2,1.28-0.41,2.57-0.58,3.85c-1.04,7.68-3.17,15.83-6.51,24.91c-2.43,6.61-5.36,13.12-7.91,18.7c-2.72,5.96-4.9,10.95-6.85,15.7
	l-0.05,0.09c-0.11,0.21-0.34,0.65,0.23,1.14l0.24,0.21l0.19-0.25c0.54-0.69,1.15-1.34,1.74-1.97c0.68-0.72,1.38-1.46,1.98-2.29
	c0.11-0.16,0.2-0.33,0.29-0.51l1.27-2.46c0.92-1.77,1.83-3.53,2.73-5.31c1.66-3.3,3.63-7.12,5.95-10.73
	c4.35-6.79,8.38-11.86,12.68-15.97c5.6-5.35,11.82-9.99,17.17-13.82c1.53-1.09,3.12-2.15,4.66-3.17l2.54-1.69
	c1.85-1.24,3.77-2.52,5.68-3.72l0.61-0.38c2.38-1.49,4.84-3.03,7.12-4.77c0.62-0.47,1.23-0.93,1.85-1.39l1.28-0.96
	c0.49-0.37,0.99-0.74,1.59-0.85c0.11-0.02,0.22-0.02,0.32-0.01c0.24,0.04,0.44,0.17,0.56,0.36c0.12,0.19,0.14,0.43,0.06,0.67
	c-0.13,0.37-0.35,0.73-0.55,1.03c-1.25,1.88-2.5,3.76-3.76,5.63c-0.24,0.36-0.49,0.73-0.74,1.09c-0.85,1.24-1.73,2.53-2.45,3.89
	c-1.87,3.52-3.74,7.04-5.6,10.56c-3.57,6.75-6.92,11.91-10.53,16.22c-4.17,4.97-8.29,8.88-12.6,11.92
	c-3.46,2.45-7.08,4.52-9.84,6.04c-1.3,0.72-2.63,1.41-3.95,2.11c-2.53,1.33-5.15,2.7-7.62,4.27c-2.22,1.41-4.13,2.75-5.85,4.12
	c-4.29,3.39-7.74,7.43-10.55,10.93c-1,1.24-1.76,2.7-2.27,4.34c-0.71,2.27-1.31,4.6-1.81,6.93c-1.58,7.47-2.74,14.02-3.55,20.03
	c-0.43,3.18-0.82,6.42-1.19,9.56l-0.38,3.19l-0.03,0.16c-0.06,0.33-0.14,0.83,0.35,1.25l0.25,0.22l0.36-0.53
	c0.11-0.16,0.21-0.29,0.29-0.44c2.93-5.22,5.58-8.95,8.61-12.11c0.58-0.6,0.92-1.3,1.17-1.9c0.85-1.99,1.5-4.01,2.14-6.08
	c2.53-8.13,7.07-15.46,13.49-21.78c4.23-4.16,9.36-7.91,15.71-11.49c1.16-0.65,2.34-1.28,3.51-1.9c1.74-0.92,3.53-1.87,5.24-2.91
	l0.82-0.49c2.79-1.68,5.68-3.43,8.16-5.7c0.23-0.21,0.51-0.39,0.81-0.52c0.19-0.08,0.38-0.11,0.56-0.08
	c0.45,0.07,0.71,0.47,0.64,0.97c-0.07,0.48-0.26,0.96-0.4,1.27c-2.51,5.7-4.97,10.59-7.52,14.94c-2.89,4.93-6.39,9.53-10.39,13.69
	c-2.78,2.89-5.97,5.41-9.06,7.86l-1.32,1.05c-2.31,1.84-4.77,3.57-7.15,5.24c-1.47,1.03-2.94,2.06-4.38,3.12l-0.15,0.11
	c-2.78,2.05-5.66,4.16-8.23,6.59c-3.48,3.29-6.14,7.01-7.9,11.04c-1.65,3.79-2.91,7.75-3.74,11.77c-1.17,5.68-1.49,11.38-0.96,16.94
	c0.61,6.35,2,12.8,4.25,19.72c1.22,3.76,2.59,6.99,4.18,9.89c0.17,0.31,0.37,0.69,0.52,1.09c0.14,0.37,0.21,0.68,0.23,0.95
	c0.01,0.22-0.07,0.43-0.23,0.58c-0.17,0.15-0.39,0.22-0.61,0.19L72.91,243.18z M119.93,124.91h-0.02c-0.41-0.06-0.62,0.17-0.74,0.29
	c-3.13,3.43-6.79,6.39-10.34,9.25l-1.09,0.88c-1.01,0.82-2.03,1.64-3.04,2.45c-3.6,2.89-7.33,5.89-10.82,9.04
	c-3.63,3.27-7.8,7.28-11.31,12.16c-0.4,0.55-0.77,1.13-1.14,1.7l-0.15,0.23c-0.08,0.12-0.13,0.26-0.18,0.37l-0.14,0.34l0.16,0.14
	c0.13,0.11,0.26,0.18,0.4,0.2c0.29,0.04,0.51-0.12,0.65-0.23l0.09-0.07c0.5-0.32,0.99-0.65,1.47-0.98c0.4-0.27,0.79-0.54,1.19-0.8
	c7.72-5.03,13.39-9.19,18.39-13.51c6.51-5.62,11.86-12,15.89-18.98l0.1-0.18c0.35-0.6,0.71-1.22,0.91-1.93l0.08-0.29l-0.29-0.08
	L119.93,124.91z M119.22,122.56l-0.95,0.48c-0.19,0.09-0.37,0.18-0.55,0.29c-1.98,1.2-3.96,2.4-5.93,3.6l-1.26,0.77
	c-0.24,0.15-0.48,0.3-0.72,0.44c-0.82,0.48-1.63,0.95-2.45,1.42c-1.65,0.95-3.3,1.91-4.93,2.9c-6.71,4.09-12.27,9.44-16.52,15.89
	c-2.67,4.05-4.65,7.56-6.23,11.05l-0.07,0.14c-0.12,0.23-0.27,0.53-0.16,0.89l0.09,0.19l0.19,0.03c0.46,0.07,0.66-0.27,0.8-0.51
	c4.52-6.72,10.23-12.01,15.22-16.3c2.95-2.54,6.04-5.02,9.02-7.42c1.31-1.06,2.63-2.11,3.93-3.18c2.47-2.01,5.32-4.37,7.95-6.91
	c0.88-0.85,1.77-1.78,2.28-3.05L119.22,122.56z M10.64,94.94l-0.29,0.19c-0.53,0.34-0.36,0.8-0.26,1.09l0.4,1.49
	c0.43,1.6,0.86,3.26,1.4,4.87c0.68,2.03,1.43,3.94,2.23,5.66c1.27,2.72,2.49,5.11,3.74,7.32c3.38,5.99,7.33,10.82,12.05,14.77
	c2.82,2.35,5.89,4.24,9.33,6.3c0.17,0.1,0.33,0.21,0.49,0.32c0.48,0.32,0.97,0.64,1.59,0.8l0.29,0.08l0.07-0.3
	c0.15-0.65-0.21-1.01-0.45-1.24c-0.05-0.05-0.1-0.09-0.14-0.14c-2.84-3.2-5.68-6.39-8.53-9.58c-3.64-4.07-7.2-8.5-10.57-13.16
	c-1.82-2.52-3.55-5.17-5.22-7.74l-0.92-1.42c-0.44-0.67-0.82-1.4-1.22-2.15c-0.51-0.96-1.07-1.9-1.62-2.8
	c-0.78-1.29-1.58-2.63-2.22-4.03L10.64,94.94z M11.87,93.66l-0.08,0.27c-0.15,0.49,0.06,0.83,0.21,1.08
	c0.03,0.06,0.07,0.11,0.09,0.17c2.82,5.57,6.12,11,10.09,16.6c4.07,5.75,8.63,11.36,13.94,17.14c1.2,1.3,2.36,2.63,3.53,3.96
	c0.59,0.68,1.19,1.35,1.79,2.03c0.06,0.07,0.12,0.14,0.18,0.22c0.25,0.31,0.53,0.66,1.07,0.87l0.6,0.23l-0.21-0.61
	c-0.09-0.26-0.17-0.51-0.25-0.75c-0.17-0.52-0.33-1.02-0.55-1.49c-0.51-1.09-1-2.19-1.49-3.29c-1.33-2.97-2.71-6.04-4.36-8.93
	c-3.92-6.87-7.82-12.08-12.27-16.4c-1.52-1.47-3.32-3.2-5.2-4.88c-1.62-1.45-3.76-3.38-5.85-5.46l-0.12-0.12
	c-0.21-0.22-0.45-0.47-0.84-0.57L11.87,93.66z M44.49,85.16l-0.25,0.07c-0.65,0.2-0.57,0.7-0.53,0.94c0.28,2.03,0.68,4.1,1.21,6.33
	c1.25,5.23,2.86,10.26,4.78,14.96c0.37,0.91,0.75,1.82,1.13,2.73c0.69,1.67,1.38,3.33,2.05,5.01c1.85,4.66,2.95,9.03,3.36,13.35
	c0.01,0.06,0,0.13,0,0.2c0,0.28-0.01,0.74,0.48,0.98l0.13,0.06l0.13-0.06c0.47-0.22,0.52-0.66,0.54-0.95
	c0.01-0.06,0.01-0.13,0.02-0.19c0.76-4.33,0.68-9-0.24-14.28c-0.76-4.36-2.2-8.57-4.28-12.51l-0.45-0.86
	c-1.13-2.15-2.3-4.37-3.62-6.48c-1.06-1.7-1.99-3.56-2.76-5.52c-0.33-0.85-0.72-1.67-1.11-2.47c-0.17-0.36-0.34-0.72-0.51-1.07
	L44.49,85.16z M42.94,89.66l-0.25,0.16c-0.42,0.28-0.42,0.64-0.42,0.93c-0.23,5.9,0.52,11.91,2.25,17.86
	c0.53,1.81,1.12,3.35,1.81,4.7c0.54,1.04,1.07,2.09,1.6,3.13c0.62,1.23,1.25,2.46,1.88,3.69c1.06,2.04,2.13,4.06,3.2,6.09l0.94,1.79
	l0.05,0.1c0.08,0.18,0.21,0.48,0.59,0.55l0.12,0.02l0.1-0.07c0.36-0.25,0.3-0.62,0.25-0.91c-0.48-3.84-1.39-7.45-2.7-10.75
	c-0.53-1.32-1.08-2.64-1.62-3.96c-0.61-1.48-1.23-2.95-1.81-4.44c-2.36-6-4.08-11.48-5.24-16.75c-0.03-0.14-0.06-0.28-0.08-0.42
	c-0.09-0.5-0.18-1.01-0.49-1.48L42.94,89.66z M139.09,66.75l-0.48,0.23c-0.6,0.29-0.96,0.71-1.28,1.09l-0.19,0.22
	c-2.22,2.48-4.43,4.96-6.63,7.46l-1.89,2.16c-2.45,2.81-4.99,5.71-7.62,8.44c-3.88,4.02-8.17,7.75-12.31,11.36l-0.65,0.56
	c-1.88,1.64-3.77,3.27-5.67,4.9c-1.93,1.67-3.86,3.33-5.78,5.01c-2.3,2-4.59,4.23-6.79,6.6c-0.29,0.31-0.56,0.63-0.89,1.01
	l-1.12,1.29l0.8-0.13c0.64-0.1,1.02-0.32,1.33-0.51c0.08-0.05,0.16-0.09,0.23-0.13c0.36-0.19,0.76-0.39,1.11-0.66
	c1-0.75,2.13-1.34,3.22-1.91l0.97-0.51c1.55-0.81,3.1-1.63,4.67-2.42c4.41-2.23,8.82-4.92,13.08-8.02
	c5.74-4.17,10.14-8.83,13.43-14.25c1.63-2.68,3.53-5.85,5.28-9.11c2.14-3.97,4.21-7.4,6.33-10.49l0.11-0.15
	c0.27-0.39,0.58-0.83,0.66-1.52L139.09,66.75z M135.37,66.93c-0.08,0.05-0.15,0.1-0.23,0.14c-0.29,0.14-0.57,0.32-0.84,0.5
	l-0.11,0.07c-0.83,0.54-1.67,1.07-2.5,1.6c-1.98,1.27-4.04,2.58-6.02,3.93c-3.07,2.08-5.83,4.05-8.43,5.99
	c-5.38,4.02-9.98,8.07-14.06,12.38c-4.97,5.24-9.19,10.85-12.55,16.68c-0.89,1.54-1.75,3.1-2.61,4.66l-1.04,1.88
	c-0.1,0.18-0.18,0.36-0.27,0.54l-0.12,0.25l0.48,0.33c4.44-4.79,9.4-9.04,14.21-13.16l1.57-1.34c3.39-2.91,7.01-6.08,11.4-9.98
	c4.37-3.88,8.23-8.1,11.11-11.35c1.26-1.43,2.51-2.86,3.76-4.3c2.33-2.69,4.74-5.47,7.22-8.1c0.1-0.11,0.17-0.23,0.23-0.36
	c0.03-0.06,0.06-0.11,0.09-0.18l0.18-0.32l-0.35-0.11c-0.06-0.02-0.11-0.03-0.16-0.04C135.9,66.57,135.61,66.77,135.37,66.93z
	 M39.05,46.23l-0.8-0.17l1.18,1.89c0.62,1,1.24,1.97,1.84,2.95l0.37,0.6c0.4,0.64,0.82,1.31,1.19,1.98
	c1.94,3.56,4.19,7.79,6.25,12.2c0.45,0.96,0.88,1.93,1.31,2.89c0.84,1.88,1.7,3.82,2.68,5.68c0.47,0.89,0.93,1.79,1.38,2.69
	c1.09,2.14,2.22,4.35,3.46,6.46l0.48,0.82c2.32,3.98,4.72,8.09,7.56,11.83c0.06,0.07,0.12,0.14,0.19,0.21l0.29,0.3l0.21-0.21
	c0.36-0.35,0.2-0.76,0.12-0.97l-0.04-0.1c-1.33-4.06-2.42-8.25-3.48-12.32c-0.66-2.55-1.35-5.18-2.09-7.76
	c-0.76-2.66-1.71-5.24-2.89-7.89c-0.8-1.79-1.8-3.64-3.16-5.82c-1.6-2.57-3.46-4.8-5.53-6.61c-2.41-2.11-4.91-4.19-7.32-6.21
	c-0.92-0.77-1.84-1.53-2.76-2.31c-0.1-0.08-0.22-0.11-0.32-0.12L39.05,46.23z M34.66,43.9l0.28,0.87c0,0,1.01,3.15,1.27,3.99
	l1.19,3.79c0.81,2.59,1.62,5.18,2.46,7.76c0.9,2.77,1.88,5.71,3.21,8.52c0.32,0.67,0.6,1.35,0.89,2.03
	c0.27,0.63,0.53,1.26,0.82,1.88c2.03,4.37,4.92,8.69,8.84,13.19c2.49,2.86,5.24,5.72,8.42,8.74c0.58,0.55,1.1,0.91,1.69,1.15
	l0.88,0.37l-1.1-1.68c-0.42-0.64-0.84-1.28-1.25-1.92c-0.33-0.52-0.66-1.03-0.99-1.55c-0.84-1.31-1.72-2.66-2.52-4.01L58.14,86
	c-2.48-4.18-5.04-8.5-7-13.02c-0.68-1.56-1.38-3.11-2.09-4.66c-0.52-1.15-1.05-2.3-1.56-3.46c-1.86-4.2-3.73-7.77-5.71-10.92
	c-0.32-0.51-0.61-1.03-0.91-1.56c-0.17-0.3-0.34-0.6-0.51-0.9c-1.35-2.33-2.94-4.57-4.34-6.55c-0.09-0.13-0.21-0.21-0.36-0.31
	c-0.07-0.05-0.16-0.11-0.27-0.19L34.66,43.9z M91.01,12.9l-1.64,6.47c-0.05,0.18-0.09,0.37-0.13,0.56c-0.06,0.27-0.12,0.55-0.2,0.82
	c-0.55,1.81-1.07,3.62-1.59,5.44c-1.06,3.71-2.17,7.55-3.48,11.25c-0.48,1.35-0.98,2.7-1.47,4.05c-0.67,1.83-1.34,3.66-1.98,5.5
	c-2.58,7.42-3.67,13.3-3.52,19.09v0.16c0.09,3.57,0.19,7.26,0.6,10.89c0.54,4.81,1.7,9.53,3.46,14.04c0.09,0.24,0.17,0.49,0.26,0.73
	c0.09,0.26,0.17,0.52,0.28,0.78c0.2,0.5,0.42,1,0.65,1.48c0.06,0.14,0.18,0.2,0.36,0.31l0.31,0.22l0.14-0.36
	c0.19-0.49,0.11-0.96,0.05-1.38c-0.02-0.11-0.03-0.22-0.05-0.33c-0.55-5.33-0.28-10.57,0.02-14.54c0.58-7.58,1.8-15.56,3.85-25.12
	c1.13-5.29,2.41-11.44,3.27-17.53c1.02-7.21,1.26-14.53,1.41-20.82c0-0.12-0.04-0.22-0.1-0.39c-0.04-0.1-0.09-0.23-0.17-0.42
	L91.01,12.9z M93.17,13.88l-0.29,0.68c-0.27,0.63-0.26,1.13-0.25,1.58c0,0.11,0,0.21,0,0.31c-0.17,6.79-0.58,15.72-2.28,24.59
	c-0.85,4.43-1.81,9.23-2.94,14.67c-2.06,9.92-3.23,18.89-3.57,27.41c-0.13,3.16-0.06,5.97,0.22,8.59c0.01,0.1,0.02,0.21,0.02,0.32
	c0.02,0.37,0.03,0.8,0.32,1.18l0.09,0.12h0.15c0.49-0.01,0.62-0.4,0.71-0.67c2.43-6.3,4.64-12.97,6.58-19.81
	c2.41-8.51,3.88-17.02,4.36-25.31c0.26-4.42,0.45-9.66-0.1-15c-0.49-4.81-1.11-10.41-2.23-15.91l-0.06-0.3
	c-0.1-0.53-0.21-1.08-0.46-1.76L93.17,13.88z"/>
</svg>
