<?xml version="1.0" encoding="UTF-8"?>
<svg id="Capa_1" data-name="Capa 1" xmlns="http://www.w3.org/2000/svg" xmlns:xlink="http://www.w3.org/1999/xlink" viewBox="0 0 202.56 357.67">
  <defs>
    <style>
      .cls-1 {
        fill: url(#Degradado_sin_nombre_70);
        opacity: .35;
      }
    </style>
    <linearGradient id="Degradado_sin_nombre_70" data-name="Degradado sin nombre 70" x1="387.92" y1="311.33" x2="655.81" y2="43.43" gradientTransform="translate(634.5 309.92) rotate(-147.61) scale(1 -1)" gradientUnits="userSpaceOnUse">
      <stop offset="0" stop-color="#805835"/>
      <stop offset=".01" stop-color="#89613b"/>
      <stop offset=".06" stop-color="#a9804f"/>
      <stop offset=".11" stop-color="#c1965e"/>
      <stop offset=".16" stop-color="#cfa467"/>
      <stop offset=".2" stop-color="#d4a96b"/>
      <stop offset=".75" stop-color="#f9edb4"/>
      <stop offset="1" stop-color="#d4a96b"/>
    </linearGradient>
  </defs>
  <path class="cls-1" d="m87.92,193.29c-1.19-1.69-2.4-3.37-3.58-5.06-.46-.66-1.01-1.21-1.67-1.65-.66-.43-1.32-.85-1.99-1.27-2.08-1.31-4.22-2.53-6.27-3.89-2.74-1.83-5.54-3.57-8.2-5.53-3.73-2.76-7.12-5.91-10.4-9.17-1.33-1.32-2.53-2.76-3.66-4.25-2.45-3.21-4.68-6.58-6.83-10-1.92-3.04-3.76-6.13-5.33-9.37-1.01-2.08-1.95-4.2-2.95-6.28-2.4-4.96-4.61-10.02-6.76-15.09-1.13-2.67-2.18-5.39-3.26-8.08-.22-.55-.44-1.1-.38-1.71.09-.93,1.04-1.45,1.84-.97.33.2.62.48.92.74,1.18,1.05,2.33,2.12,3.53,3.14,3.1,2.66,6.25,5.26,9.32,7.95,1.45,1.26,2.92,2.49,4.44,3.66,1.64,1.25,3.3,2.5,4.88,3.82,5.37,4.49,9.88,9.73,13.5,15.72,1.64,2.7,2.95,5.57,4.24,8.44,1.38,3.1,2.69,6.24,4.09,9.33,1.13,2.51,2.34,4.99,3.79,7.35,1.82,2.98,3.75,5.9,5.85,8.7,2.51,3.35,5.02,6.69,7.8,9.83.29.33.6.65.92.96.05.05.19.07.26.04.07-.03.16-.14.16-.21,0-.84-.02-1.67-.04-2.51-.18-6.75-.67-13.47-1.57-20.16-.8-5.95-1.67-11.9-2.58-17.83-.96-6.28-1.74-12.58-2.26-18.91-.09-1.11-.46-1.97-1.24-2.73-1.26-1.25-2.37-2.63-3.46-4.03-2.73-3.49-5.72-6.76-8.97-9.79-2.51-2.34-5.3-4.23-8.29-5.87-2.8-1.54-5.54-3.2-8.21-4.95-4.85-3.16-9.22-6.9-13.26-11.02-3.77-3.84-7.05-8.08-9.89-12.66-1.56-2.51-2.9-5.14-4.3-7.74-3.2-5.95-6.11-12.02-8.59-18.3-1.01-2.56-2.1-5.1-3.14-7.65-.11-.27-.22-.56-.24-.85-.07-.76.01-1.5.72-1.97.67-.43,1.32-.21,1.95.13.09.05.17.09.26.15.66.43,1.33.85,1.98,1.28,2.68,1.76,5.2,3.73,7.74,5.67,5.05,3.85,10.07,7.73,14.59,12.21,2.13,2.11,4.34,4.16,6.3,6.44,5.35,6.23,9.81,13.07,13.65,20.31,2.26,4.26,4.34,8.62,6.78,12.79,1.72,2.93,3.45,5.85,5.45,8.61,2.58,3.56,5.56,6.77,8.64,9.89.13.13.25.31.48.28.22-.2.1-.45.07-.68-.2-1.21-.37-2.43-.62-3.64-1.4-6.95-2.96-13.87-4.59-20.77-.58-2.45-1.35-4.83-2.27-7.17-1.09-2.8-2.7-5.25-4.79-7.38-1.72-1.76-3.47-3.5-5.24-5.2-2.45-2.35-4.96-4.64-7.39-7.01-2.58-2.52-4.88-5.28-6.85-8.3-3.37-5.17-6.23-10.61-8.57-16.32-1.4-3.42-2.54-6.93-3.64-10.46-1.91-6.08-3.3-12.27-3.92-18.61-.44-4.51-.86-9.02-1.53-13.5-.03-.19-.05-.39-.07-.59-.15-1.31.89-1.88,2.02-1.44.31.12.6.34.85.58.5.47.98.97,1.43,1.49,3.99,4.56,8.2,8.91,12.36,13.31,3.46,3.64,6.87,7.32,9.96,11.29,5.88,7.57,10.01,15.99,12.43,25.27,1.13,4.35,1.8,8.78,2.33,13.23.75,6.21,1.71,12.39,2.93,18.52.1.48.19.97.33,1.44,1.11,3.68,2.02,7.41,2.84,11.16.62,2.84,1.24,5.68,1.87,8.51.07.3,0,.72.51.85.39-1.16.82-2.31,1.16-3.48,1.25-4.23,1.89-8.55,1.94-12.96.05-4.69.47-9.34,1.28-13.96.61-3.45,1.51-6.82,2.86-10.06.75-1.82,1.53-3.63,2.31-5.44.23-.54.49-1.08.78-1.59,2.7-4.71,5.85-9.11,9.53-13.12,1.2-1.31,2.41-2.6,3.56-3.95,2.93-3.47,5.46-7.22,7.72-11.15.74-1.28,1.47-2.56,2.2-3.84.22-.39.46-.76.83-1.03.83-.61,1.84-.22,2.04.79.11.55-.02,1.08-.15,1.6-.25.95-.52,1.9-.79,2.85-.89,3.23-1.82,6.44-2.46,9.73-.48,2.46-.89,4.94-1.41,7.4-.91,4.34-2.11,8.6-3.91,12.67-.42.95-.81,1.9-1.23,2.85-.98,2.21-2.17,4.3-3.49,6.33-2.1,3.22-4.46,6.25-6.73,9.35-1.19,1.63-2.33,3.29-3.48,4.95-.22.32-.15.57.24.66.97.21,1.34.88,1.57,1.75.26,1,.55,1.99.87,2.98,1.61,5.02,3.13,10.06,4.57,15.13.87,3.09,1.4,6.24,1.37,9.47-.02,1.62,0,3.25.03,4.87.06,2.86,0,5.71-.18,8.56-.27,4.23-.53,8.45-.8,12.68-.14,2.22-.13,4.43.08,6.64.27,2.79.72,5.56,1.15,8.33,0,.04.06.06.18.17.4-.49.72-1.01.98-1.58.94-2.01,2.02-3.94,3.09-5.88.71-1.3,1.32-2.62,1.35-4.17.08-4.28.23-8.56.33-12.84.05-1.92.02-3.84.08-5.76.08-2.61.12-5.22.4-7.82.43-4.02,1.26-7.96,2.57-11.8,1.35-3.98,3.03-7.8,5.06-11.47,1.79-3.23,3.67-6.41,5.48-9.62.68-1.2,1.35-2.41,1.92-3.66,1.8-3.99,3.64-7.97,4.96-12.16.15-.49.41-.89.86-1.16.64-.38,1.44-.13,1.74.55.14.32.17.66.16,1.01-.03.74-.05,1.48-.09,2.21-.26,4.62-.4,9.25-.41,13.88-.01,5.07-.2,10.14-.83,15.18-.87,6.93-2.63,13.62-5.34,20.05-.84,2-1.77,3.95-2.7,5.91-1.87,3.97-3.95,7.82-6.06,11.66-1.96,3.58-3.87,7.19-5.69,10.85-1.6,3.21-3.02,6.52-4.48,9.8-.42.94-.66,1.96-1.06,2.91-1.79,4.22-3.15,8.59-4.36,13.01-1.75,6.37-3.1,12.82-4,19.36-.27,1.95-.57,3.9-.44,5.88.25,3.68.29,7.38.63,11.06.7,7.47,1.97,14.83,3.72,22.12.06.23.16.46.27.67.01.03.22.01.25-.03.09-.17.17-.35.21-.54.51-2.81,1.03-5.62,1.5-8.43.85-5.01,1.3-10.05,1.55-15.12.04-.84.01-1.66-.19-2.49-.19-.81-.32-1.64-.44-2.47-.52-3.47-.62-6.96-.61-10.46.01-3.35-.11-6.69-.56-10.02-.34-2.54-.66-5.08-.97-7.62-.09-.73-.14-1.47-.16-2.21-.02-.66.32-1.13.94-1.37.56-.22,1.1-.04,1.52.59.43.65.8,1.35,1.16,2.05,1.31,2.54,2.59,5.09,3.9,7.62,2.86,5.5,5.92,10.91,8.33,16.63.84,2,1.63,4.01,2.23,6.1,1.19,4.1,1.62,8.31,1.63,12.56,0,2.61-.14,5.22-.24,7.82-.16,4.11.27,8.16.99,12.19.04.21,0,.5.35.54.29-.32.28-.73.37-1.1.68-2.92,1.37-5.84,2.21-8.73.75-2.6,1.42-5.22,2.29-7.79.63-1.86,1.17-3.76,1.88-5.59.89-2.29,1.77-4.6,3.04-6.72.1-.17.17-.36.26-.53.35-.64.4-1.29.17-2-.26-.8-.46-1.61-.7-2.41-1.14-3.94-1.87-7.95-2.07-12.05-.29-5.84.13-11.61,1.58-17.29.79-3.1,1.64-6.18,2.82-9.16.71-1.78,1.55-3.51,2.44-5.21,1.37-2.62,2.84-5.18,4.39-7.69,2.1-3.39,4.3-6.71,6.24-10.2,1.33-2.38,2.38-4.87,3.23-7.44.92-2.75,1.68-5.56,2.23-8.41.06-.29.12-.58.23-.85.25-.6.8-.96,1.37-.94.57.02,1.05.42,1.21,1.11.11.48.16.97.19,1.46.53,7.51,1.06,15.03,1.56,22.54.31,4.68.2,9.35-.41,14-.7,5.25-2.03,10.33-3.96,15.25-1.53,3.9-3.34,7.67-5.38,11.33-1.13,2.02-2.23,4.05-3.35,6.08-1.6,2.88-3.27,5.73-4.78,8.65-1.37,2.67-2.63,5.4-3.83,8.14-1.67,3.83-3.35,7.67-4.69,11.64-.79,2.33-1.51,4.68-2.2,7.04-.1.36-.25.73-.13,1.15.11-.1.19-.15.25-.23.21-.28.4-.56.61-.84,2.82-3.85,5.7-7.67,9.08-11.06.69-.69,1.16-1.47,1.41-2.38.7-2.53,1.78-4.91,2.85-7.28.75-1.65,1.64-3.25,2.52-4.84.91-1.64,1.98-3.17,3.08-4.69,2.47-3.39,5.21-6.55,8.44-9.25,3.99-3.33,8.35-6.08,12.97-8.44,4.52-2.31,8.99-4.69,13.37-7.25,3.58-2.1,7.01-4.4,10.07-7.21.62-.57,1.21-1.15,1.83-1.72.47-.43.94-.88,1.45-1.26.58-.43,1.17-.43,1.64-.07.53.41.68.96.5,1.58-.11.37-.27.74-.45,1.09-.67,1.32-1.37,2.61-2.02,3.94-1.1,2.25-2.17,4.53-3.25,6.79-.11.22-.22.44-.34.66-1.76,3.19-3.76,6.24-5.78,9.27-3.17,4.75-7.04,8.85-11.6,12.29-1.85,1.4-3.79,2.65-5.69,3.96-3.85,2.66-7.83,5.11-11.96,7.33-3.55,1.92-7.09,3.86-10.46,6.1-1.76,1.18-3.45,2.46-4.97,3.94-2.54,2.47-4.95,5.08-7.27,7.76-2.41,2.78-4.31,5.87-5.62,9.3-.39,1.01-.71,2.04-1.04,3.07-.42,1.31-.9,2.61-1.21,3.95-1.5,6.44-1.79,12.95-1.13,19.52.36,3.63,1.01,7.21,1.77,10.78.76,3.58,1.85,7.04,3.2,10.43,1.66,4.17,3.58,8.21,5.61,12.21,2.34,4.61,4.72,9.2,7.45,13.6,2.6,4.18,5.24,8.34,7.91,12.47,1.87,2.9,3.77,5.77,5.73,8.6,3.85,5.55,8.29,10.64,12.8,15.66.56.62,1.12,1.24,1.63,1.9.59.76.7,1.6.23,2.49-.42.8-.95,1.49-1.65,2.06-1.04.84-2.67,1.06-3.66-.61-.3-.51-.64-.99-1.01-1.45-4.96-6.12-9.8-12.33-14.36-18.76-5.72-8.08-11.28-16.27-16.77-24.5-.66-.98-1.28-1.99-1.91-2.99-.32-.51-.72-.92-1.27-1.19-1.68-.82-3.23-1.88-4.81-2.88-2.53-1.61-5.02-3.29-7.57-4.87-4.74-2.94-9.23-6.21-13.37-9.94-2.09-1.88-1.84-1.84-4.4-2.48-3.16-.79-6.11-2.2-9.16-3.31-1.34-.49-2.62-.78-4.02-.5-.72.14-1.46.21-2.19.31-3.37.46-6.76.69-10.16.5-2.11-.12-4.23-.17-6.35-.23-3.89-.11-7.76-.46-11.6-1.1-3.75-.63-7.41-1.6-10.86-3.23-1.6-.76-3.18-1.56-4.77-2.35-.04-.02-.09-.05-.13-.07-2.62-1.48-5.14-3.09-7.54-4.91-3.06-2.32-6.18-4.55-9.5-6.5-1.02-.6-2.11-1.05-3.14-1.63-3.11-1.74-6.45-2.9-9.87-3.88-1.7-.48-3.39-1.02-5.09-1.54-.54-.17-.97-.48-1.23-.99-.35-.7-.1-1.42.61-1.71.27-.11.57-.16.86-.18.39-.03.79-.02,1.18,0,4.87.17,9.74.24,14.61-.02,2.46-.13,4.92-.19,7.38-.13,3.79.1,7.58.23,11.32.91,1.98.36,3.96.77,5.94,1.14,3.45.63,6.81,1.64,10.01,3.04,2.11.93,4.24,1.84,6.25,3.01,2.09,1.21,4.17,2.42,6.14,3.81,3.77,2.67,7.52,5.39,11.51,7.74,2.25,1.33,4.61,2.44,6.92,3.65.26.14.54.23.82.33,2.37.81,4.75,1.61,7.13,2.42.37.13.74.27,1.15.24.05,0,.12-.02.13-.05.03-.08.08-.19.05-.26-.06-.13-.15-.25-.24-.36-2.74-3.29-5.45-6.61-7.9-10.13-.29-.41-.62-.75-1.08-.98-1.28-.63-2.52-1.33-3.83-1.91-3.19-1.42-6.35-2.92-9.52-4.38-.13-.06-.27-.13-.4-.2-3.86-2.12-7.38-4.71-10.6-7.7-2.21-2.05-4.17-4.32-6.04-6.67-3.24-4.08-5.73-8.6-7.54-13.48-1.21-3.23-2.11-6.56-2.92-9.91-.66-2.73-1.51-5.4-2.55-8.02-1.56-3.9-3.6-7.55-5.73-11.16-1.82-3.1-3.67-6.18-5.76-9.11-.33-.47-.45-.98-.4-1.54.1-1.09,1-1.67,2-1.25.45.19.86.48,1.25.77,2.06,1.52,4.09,3.08,6.17,4.57,3.2,2.3,6.17,4.89,9.2,7.4,7.14,5.91,12.93,12.93,17.67,20.86,1.54,2.58,2.86,5.28,4.18,7.97,1.72,3.49,3.48,6.95,5.27,10.41,2.11,4.07,4.2,8.13,6.45,12.13,4.15,7.38,9.21,14.08,14.84,20.38,1.28,1.43,2.67,2.75,4.14,4,.34.29.68.56,1.04.82.35.25.65.08.67-.39.03-1.13.07-2.26.07-3.4,0-2.45-.44-4.78-1.74-6.93-.68-1.13-1.22-2.36-1.75-3.58-1.98-4.56-3.13-9.33-3.39-14.29-.08-1.42-.09-2.85-.1-4.28,0-.7-.12-1.36-.35-2.02-1.02-2.83-2.02-5.66-3-8.49-.43-1.26-.83-2.52-1.21-3.8-1.38-4.68-2.51-9.42-3.51-14.19-.66-3.18-1.35-6.36-1.81-9.58-.55-3.81-.85-7.63-.97-11.47-.03-1.11-.05-1.1-1.07-1.45-2.42-.85-4.76-1.88-7.07-2.99-2.57-1.24-5.12-2.52-7.67-3.81-.91-.46-1.84-.6-2.86-.53-2.16.16-4.32.3-6.49.39-3.15.14-6.3.17-9.45-.08-4.04-.33-7.99-1.12-11.91-2.12-2.96-.75-5.86-1.7-8.71-2.77-4.12-1.55-7.9-3.78-11.55-6.21-6.47-4.31-12.94-8.62-19.39-12.96-1.51-1.02-2.96-2.12-4.42-3.2-.55-.41-1.1-.84-1.44-1.46-.5-.91-.12-1.81.9-2.06.33-.08.68-.09,1.02-.07.49.03.98.11,1.47.18,2.83.4,5.65.83,8.48,1.19,5.37.69,10.73,1.46,16.03,2.58,3.61.76,7.17,1.75,10.63,3.06.32.12.65.24.98.33,1.95.55,3.8,1.37,5.61,2.27,2.77,1.38,5.49,2.88,8.25,4.29,2.76,1.41,5.4,3.04,8.08,4.6,2.08,1.22,4.15,2.45,6.22,3.69,2.37,1.43,4.9,2.52,7.38,3.71,4.04,1.94,8.24,3.5,12.46,5.03.07.03.17-.03.26-.05-.01-.09,0-.2-.04-.27Zm5.78-102.79c-.7,1.35-1.35,2.73-2,4.11-.25.53-.45,1.09-.65,1.65-.15.42-.25.85-.42,1.26-1.24,3.02-1.98,6.18-2.63,9.36-.6,2.9-.8,5.85-.9,8.8-.02.44.07.88.16,1.31.87,4.24,1.8,8.47,2.63,12.72.76,3.86,1.44,7.74,2.11,11.62.8,4.71,1.58,9.42,2.31,14.13.89,5.69,1.46,11.42,2.17,17.14.2,1.61.39,3.22.6,4.84.04.28,0,.59.26.81.07-.05.18-.09.2-.15.79-2.59,1.66-5.15,2.65-7.67.89-2.29,1.66-4.63,2.67-6.88.25-.55.3-1.13.32-1.73.06-2.37-.19-4.72-.56-7.05-.27-1.7-.55-3.4-.76-5.11-.12-.95-.42-1.81-.94-2.61-.66-1.04-1.29-2.1-1.95-3.13-2.24-3.47-3.77-7.25-4.81-11.22-2.08-7.91-2.55-15.92-1.24-24.01.96-5.88,1.99-11.74,2.95-17.62.27-1.65.43-3.31.64-4.96-1.21,1.33-2,2.86-2.79,4.39Zm30.7,177.02c-.66-5.65-.68-11.3.06-16.93.26-2.01.17-3.83-.65-5.73-1.03-2.39-1.66-4.95-1.98-7.55-.15-1.21-.53-2.27-1.21-3.27-.83-1.22-1.6-2.48-2.41-3.72-.13-.2-.3-.39-.46-.57-.03-.03-.11-.05-.13-.04-.06.06-.17.15-.16.2.06.34.15.67.24,1,1.19,4.43,2.07,8.92,2.15,13.53.08,4.39-.36,8.75-1.15,13.06-.18.97-.34,1.94-.6,2.89-.25.86-.15,1.64.24,2.42.52,1.06,1,2.14,1.52,3.2,1.78,3.68,3.56,7.35,5.34,11.03.09.2.16.43.45.52-.42-3.41-.85-6.73-1.24-10.05Zm-9.47,6.37c-.92,4.68-.58,9.31.5,13.91.24,1.01.75,1.76,1.65,2.32,2.3,1.43,4.55,2.93,6.83,4.38,1.37.87,2.75,1.72,4.13,2.59.4.26.8.51,1.3.62,0-.18.03-.29-.01-.36-4.72-7.96-9.52-15.87-14.04-23.94-.02-.03-.09-.02-.14-.03-.21.11-.18.33-.22.52Z"/>
</svg>