<?xml version="1.0" encoding="utf-8"?>
<!-- Generator: Adobe Illustrator 27.7.0, SVG Export Plug-In . SVG Version: 6.00 Build 0)  -->
<svg version="1.1" id="Capa_1" xmlns="http://www.w3.org/2000/svg" xmlns:xlink="http://www.w3.org/1999/xlink" x="0px" y="0px"
	 viewBox="0 0 214.86 382.98" style="enable-background:new 0 0 214.86 382.98;" xml:space="preserve">
<style type="text/css">
	.st0{fill:url(#SVGID_1_);}
</style>
<g>
	
		<linearGradient id="SVGID_1_" gradientUnits="userSpaceOnUse" x1="488.021" y1="-135.2022" x2="756.664" y2="133.4409" gradientTransform="matrix(0.5136 -0.858 -0.858 -0.5136 -221.3054 723.1425)">
		<stop  offset="0" style="stop-color:#805835"/>
		<stop  offset="0.0243" style="stop-color:#89613B"/>
		<stop  offset="0.1198" style="stop-color:#AA8050"/>
		<stop  offset="0.2117" style="stop-color:#C1975F"/>
		<stop  offset="0.2977" style="stop-color:#CFA468"/>
		<stop  offset="0.3718" style="stop-color:#D4A96B"/>
		<stop  offset="0.7496" style="stop-color:#F9EDB4"/>
		<stop  offset="1" style="stop-color:#D4A96B"/>
	</linearGradient>
	<path class="st0" d="M115.17,197.73c0.09-0.02,0.2-0.02,0.25-0.07c3.1-3.28,6.17-6.6,8.94-10.17c1.7-2.19,3.48-4.33,4.97-6.69
		c1.29-2.06,2.6-4.1,3.92-6.14c1.7-2.62,3.34-5.28,5.19-7.8c1.84-2.52,3.61-5.1,5.48-7.6c1.22-1.63,2.51-3.21,4.02-4.58
		c0.26-0.23,0.5-0.49,0.73-0.74c2.52-2.74,5.27-5.24,8.18-7.57c4.27-3.41,8.74-6.53,13.27-9.58c2.39-1.61,4.73-3.28,7.09-4.91
		c0.41-0.28,0.81-0.58,1.24-0.82c0.3-0.17,0.62-0.32,0.96-0.4c1.02-0.24,1.78,0.4,1.74,1.45c-0.03,0.71-0.32,1.35-0.63,1.97
		c-0.82,1.64-1.63,3.29-2.53,4.89c-3.84,6.83-7.71,13.64-11.59,20.45c-2.19,3.84-4.58,7.55-7.59,10.82
		c-2.08,2.26-4.26,4.43-6.59,6.44c-3.08,2.67-6.28,5.17-9.76,7.3c-2.72,1.66-5.57,3.05-8.47,4.35c-1.99,0.89-4,1.75-6.02,2.58
		c-0.95,0.39-1.72,0.94-2.33,1.77c-1.71,2.31-3.43,4.62-5.18,6.9c-1.57,2.05-3.21,4.04-5.01,5.9c-0.75,0.78-0.77,0.77-0.3,1.79
		c1.63,3.51,3.09,7.09,4.33,10.77c1.04,3.11,1.86,6.28,2.7,9.44c1.27,4.75,2.39,9.53,3.27,14.37c0.24,1.32,0.46,2.64,0.63,3.97
		c0.4,3,0.78,6,1.14,9.01c0.09,0.7,0.28,1.35,0.6,1.98c0.64,1.29,1.28,2.58,1.85,3.9c2.01,4.59,3.13,9.4,3.42,14.4
		c0.08,1.34,0.15,2.69,0.05,4.02c-0.2,2.52,0.46,4.82,1.57,7.02c0.52,1.02,1.06,2.02,1.6,3.02c0.22,0.41,0.58,0.43,0.78,0.05
		c0.21-0.4,0.39-0.8,0.57-1.21c0.75-1.79,1.41-3.61,1.91-5.48c2.22-8.22,3.74-16.54,4.13-25.07c0.21-4.61,0.26-9.22,0.31-13.84
		c0.05-3.92,0.07-7.84,0.03-11.76c-0.03-3.03-0.06-6.05,0.16-9.08c0.67-9.28,2.71-18.23,6.46-26.78c1.59-3.63,3.1-7.3,4.94-10.83
		c1.19-2.29,2.31-4.61,3.48-6.91c0.22-0.44,0.46-0.89,0.78-1.26c0.71-0.83,1.79-0.71,2.37,0.22c0.3,0.48,0.42,0.99,0.33,1.56
		c-0.55,3.58-0.82,7.2-1.06,10.81c-0.28,4.21-0.47,8.42-0.1,12.64c0.24,2.83,0.7,5.61,1.33,8.37c0.79,3.39,1.48,6.79,1.86,10.25
		c0.57,5.22,0.38,10.4-0.69,15.55c-0.62,2.97-1.35,5.9-2.41,8.74c-1.55,4.16-3.54,8.08-6.06,11.74c-0.08,0.12-0.17,0.24-0.27,0.36
		c-2.19,2.76-4.36,5.53-6.59,8.26c-0.91,1.12-1.71,2.31-2.58,3.46c-0.31,0.41-0.46,0.87-0.53,1.37c-0.62,4.28-1.55,8.49-2.53,12.7
		c-0.03,0.14-0.06,0.29-0.05,0.44c0,0.07,0.09,0.15,0.16,0.21c0.03,0.02,0.1,0,0.14-0.01c0.38-0.16,0.65-0.45,0.92-0.74
		c1.77-1.8,3.55-3.6,5.32-5.41c0.21-0.21,0.42-0.43,0.59-0.67c1.53-2.13,3.15-4.2,4.57-6.42c2.52-3.93,4.67-8.07,6.85-12.18
		c1.14-2.15,2.47-4.18,3.8-6.21c1.28-1.96,2.78-3.75,4.26-5.54c2.24-2.72,4.81-5.14,7.63-7.27c1.62-1.23,3.21-2.49,4.84-3.71
		c3.06-2.31,6.41-4.14,9.78-5.94c2.19-1.17,4.43-2.23,6.7-3.23c4.51-1.97,8.85-4.25,13.17-6.61c0.35-0.19,0.7-0.38,1.06-0.53
		c0.27-0.11,0.56-0.2,0.86-0.23c0.78-0.07,1.33,0.47,1.33,1.26c0,0.58-0.25,1.06-0.66,1.45c-1.29,1.24-2.57,2.48-3.88,3.69
		c-2.64,2.42-5.11,4.98-7.13,7.96c-0.67,0.99-1.45,1.88-2.09,2.89c-2.1,3.26-3.91,6.68-5.6,10.16c-1.33,2.73-2.88,5.32-4.56,7.83
		c-0.03,0.04-0.06,0.08-0.09,0.12c-1.07,1.43-2.13,2.86-3.23,4.27c-2.37,3.04-5.22,5.56-8.31,7.83c-3.17,2.32-6.49,4.38-9.95,6.25
		c-1.88,1.01-3.76,2.02-5.61,3.08c-2.98,1.71-6.13,3.04-9.37,4.16c-0.7,0.24-1.4,0.51-2.12,0.71c-1.39,0.38-2.4,1.23-3.39,2.27
		c-2.25,2.38-4.26,4.99-6.75,7.13c-2.02,1.73-1.81,1.58-2.84,4.22c-2.04,5.23-4.6,10.21-7.54,15.01c-1.58,2.58-3.06,5.22-4.61,7.81
		c-0.97,1.62-1.89,3.27-3.03,4.77c-0.38,0.5-0.55,1.04-0.61,1.65c-0.12,1.19-0.22,2.37-0.37,3.55c-1.22,9.9-2.52,19.79-4,29.65
		c-1.18,7.86-9.38,26.78-10.12,26.26c-0.83-0.59-1.11-1.39-0.92-2.34c0.16-0.83,0.39-1.64,0.61-2.46
		c1.78-6.56,3.47-13.15,4.43-19.89c0.49-3.44,0.9-6.89,1.27-10.34c0.53-4.93,1.02-9.87,1.47-14.81c0.47-5.19,0.53-10.41,0.54-15.62
		c0.01-4.52-0.09-9.03-0.48-13.53c-0.32-3.67-0.91-7.28-1.84-10.84c-0.93-3.56-1.97-7.07-3.29-10.51
		c-2.38-6.21-5.6-11.94-9.86-17.06c-0.89-1.06-1.91-2.02-2.88-3.01c-0.76-0.78-1.53-1.56-2.33-2.29c-2.74-2.5-5.85-4.42-9.27-5.83
		c-3.31-1.36-6.65-2.62-10.06-3.69c-2.04-0.64-4.14-1.03-6.26-1.29c-4.04-0.5-8.11-0.64-12.18-0.76c-4.72-0.13-9.41-0.53-14.08-1.18
		c-2.31-0.32-4.63-0.57-6.92-0.99c-5.67-1.04-11.01-2.97-16.02-5.81c-3.19-1.81-6.37-3.66-9.4-5.73c-0.2-0.14-0.41-0.28-0.6-0.44
		c-2-1.55-3.99-3.11-6-4.64c-1.18-0.9-2.41-1.75-3.6-2.63c-0.32-0.23-0.63-0.49-0.9-0.77c-0.45-0.48-0.56-1.04-0.27-1.65
		c0.26-0.54,0.79-0.81,1.51-0.68c0.63,0.11,1.25,0.3,1.87,0.48c0.81,0.23,1.62,0.49,2.43,0.72c4.03,1.15,8.16,1.67,12.33,1.93
		c5.1,0.33,10.21,0.45,15.32,0.48c5.23,0.03,10.4,0.54,15.5,1.73c4.14,0.97,8.03,2.56,11.79,4.5c1.68,0.86,3.34,1.76,4.9,2.82
		c1.51,1.04,3.04,2.07,4.46,3.22c2.04,1.65,4.09,3.31,5.87,5.26c0.64,0.71,1.42,1.19,2.35,1.5c4.58,1.52,8.9,3.65,13.18,5.84
		c0.31,0.16,0.61,0.32,0.93,0.48c0.08,0.04,0.19,0.05,0.33,0.09c-0.09-0.43-0.38-0.69-0.64-0.97c-1.69-1.82-3.4-3.6-5.17-5.35
		c-3.01-2.97-6.25-5.66-9.5-8.35c-2.33-1.93-4.69-3.82-7.14-5.6c-2.69-1.95-5.48-3.75-8.23-5.63c-1.92-1.31-3.84-2.65-5.77-3.96
		c-3.5-2.37-6.83-4.95-9.98-7.76c-3.97-3.55-7.47-7.53-10.48-11.94c-2.66-3.91-4.88-8.07-6.72-12.42c-2.95-6.99-5.88-14-8.81-21
		c-0.19-0.46-0.38-0.92-0.49-1.4c-0.16-0.7,0.09-1.27,0.59-1.55c0.51-0.28,1.16-0.2,1.66,0.23c0.22,0.19,0.42,0.43,0.6,0.66
		c1.79,2.32,3.75,4.5,5.82,6.56c1.93,1.92,4.01,3.69,6.28,5.23c3.33,2.26,6.81,4.26,10.24,6.36c2.54,1.56,5.02,3.2,7.44,4.93
		c1.58,1.13,3.11,2.3,4.56,3.59c2.41,2.15,4.57,4.54,6.69,6.97c3.88,4.46,6.87,9.47,9.25,14.85c1.68,3.78,2.84,7.73,3.6,11.79
		c0.15,0.83,0.34,1.65,0.47,2.49c0.11,0.73,0.46,1.3,1.06,1.72c0.16,0.11,0.31,0.25,0.47,0.36c2.11,1.34,3.95,3.01,5.78,4.67
		c1.47,1.33,2.82,2.79,4.23,4.19c1.94,1.92,3.73,3.98,5.59,5.98c2.06,2.22,4,4.54,5.94,6.86c0.25,0.3,0.43,0.67,0.83,0.83
		c0.29-0.19,0.13-0.44,0.06-0.65c-1.18-3.96-2.63-7.8-4.63-11.43c-1.27-2.3-2.58-4.58-3.76-6.93c-1.92-3.83-3.43-7.81-4.22-12.04
		c-0.4-2.15-0.6-4.32-0.75-6.5c-0.43-6.25-0.12-12.5-0.04-18.75c0.04-2.88,0.03-5.76,0.06-8.63c0.01-0.79,0.02-1.59,0.12-2.38
		c0.09-0.76,0.5-1.16,1.1-1.22c0.66-0.06,1.18,0.21,1.46,0.81c0.32,0.67,0.6,1.36,0.85,2.06c0.87,2.43,1.73,4.86,2.57,7.3
		c1.11,3.2,2.51,6.26,4.04,9.27c1.6,3.14,3.09,6.33,4.19,9.69c0.26,0.8,0.53,1.61,0.72,2.42c0.2,0.83,0.54,1.58,0.96,2.32
		c2.52,4.45,5.21,8.79,8.25,12.91c1.71,2.32,3.44,4.61,5.17,6.91c0.12,0.15,0.27,0.28,0.43,0.39c0.04,0.03,0.24-0.05,0.24-0.08
		c0-0.24-0.01-0.49-0.06-0.73c-1.73-7.35-3.92-14.56-6.67-21.6c-1.35-3.47-3-6.81-4.44-10.24c-0.78-1.84-1.93-3.46-3.06-5.1
		c-3.78-5.48-7.92-10.68-12.37-15.62c-3.09-3.42-6.29-6.75-9.82-9.73c-0.79-0.67-1.47-1.48-2.27-2.14c-2.8-2.29-5.58-4.63-8.47-6.8
		c-3.29-2.47-6.65-4.85-10.04-7.19c-3.63-2.5-7.25-5.03-10.73-7.75c-1.72-1.35-3.44-2.68-5.1-4.1c-5.36-4.57-9.97-9.79-13.89-15.63
		c-2.86-4.25-5.32-8.73-7.63-13.29c-2.11-4.16-4.33-8.26-6.65-12.31c-0.37-0.64-0.73-1.3-1.09-1.95c-0.17-0.31-0.3-0.63-0.32-0.98
		c-0.03-0.75,0.57-1.34,1.32-1.28c0.52,0.04,0.94,0.29,1.3,0.65c3.09,3.17,6.54,5.93,9.97,8.71c1.08,0.87,2.23,1.65,3.38,2.43
		c3.09,2.07,6.22,4.08,9.29,6.18c3.49,2.38,6.73,5.07,9.75,8.03c2.92,2.87,5.44,6.04,7.66,9.46c1.43,2.21,2.64,4.55,3.9,6.86
		c0.92,1.7,1.77,3.44,2.68,5.15c2.03,3.81,4.11,7.59,6.12,11.41c0.73,1.38,1.87,2.3,3.1,3.14c1.84,1.26,3.69,2.51,5.44,3.9
		c0.49,0.39,1.02,0.72,1.6,0.98c0.06-0.15,0.1-0.21,0.09-0.24c-0.87-2.69-1.72-5.39-2.74-8.02c-0.81-2.09-1.8-4.08-2.93-6.01
		c-2.16-3.68-4.3-7.37-6.46-11.05c-1.46-2.48-2.8-5.03-4.04-7.63c-0.7-1.48-1.43-2.95-2.18-4.4c-1.49-2.89-2.44-5.97-3.06-9.15
		c-1.01-5.21-1.92-10.44-2.74-15.69c-0.16-1.03-0.35-2.06-0.57-3.07c-0.19-0.88-0.16-1.66,0.62-2.29c0.31-0.25,0.26-0.51-0.08-0.7
		c-1.79-0.97-3.57-1.95-5.38-2.88c-3.44-1.76-6.95-3.42-10.29-5.37c-2.1-1.22-4.12-2.57-6.01-4.12c-0.81-0.66-1.59-1.34-2.4-2.01
		c-3.46-2.85-6.47-6.14-9.26-9.64c-1.58-1.98-3.07-4.03-4.62-6.02c-2.07-2.67-4.36-5.15-6.62-7.64c-0.67-0.73-1.34-1.46-2-2.21
		c-0.36-0.41-0.72-0.83-0.87-1.37c-0.28-1,0.45-1.8,1.48-1.63c0.45,0.08,0.84,0.3,1.21,0.55c1.24,0.82,2.48,1.64,3.72,2.46
		c3.82,2.52,7.79,4.75,12.01,6.54c1.64,0.7,3.32,1.31,4.99,1.95c5.12,1.95,9.95,4.48,14.52,7.49c0.5,0.33,0.97,0.7,1.42,1.08
		c1.52,1.28,3.04,2.55,4.54,3.85c2.68,2.31,5.02,4.94,7.13,7.77c2.82,3.79,5.3,7.79,7.47,11.98c2.04,3.94,4.57,7.55,7.61,10.79
		c0.84,0.9,1.74,1.74,2.62,2.61c0.4-0.36,0.15-0.69,0.07-1c-0.71-2.84-1.44-5.67-2.17-8.51c-0.96-3.75-1.83-7.52-2.5-11.34
		c-0.09-0.49-0.22-0.97-0.35-1.45c-1.68-6.08-3.61-12.07-5.76-18c-1.54-4.25-2.94-8.54-3.89-12.97c-2.03-9.44-2.12-18.9-0.25-28.38
		c0.98-4.97,2.39-9.83,3.85-14.68c1.76-5.84,3.58-11.67,5.1-17.58c0.17-0.67,0.38-1.34,0.62-1.99c0.12-0.32,0.28-0.65,0.5-0.9
		c0.81-0.91,2.01-0.86,2.47,0.38c0.07,0.19,0.14,0.37,0.2,0.56c1.43,4.34,3.09,8.59,4.74,12.85c2.31,5.99,3.86,12.2,4.9,18.53
		c0.6,3.67,1.17,7.35,1.46,11.06c0.48,6.2,0.37,12.4-0.32,18.58c-0.4,3.61-1.22,7.14-2.41,10.58c-1.12,3.24-2.34,6.43-3.48,9.66
		c-0.82,2.34-1.61,4.69-2.36,7.06c-0.91,2.87-1.25,5.8-0.97,8.82c0.24,2.53,0.62,5.02,1.21,7.49c1.65,6.95,3.38,13.89,5.27,20.78
		c0.33,1.2,0.72,2.37,1.09,3.56c0.07,0.22,0.07,0.5,0.37,0.58c0.22-0.08,0.25-0.29,0.31-0.47c1.36-4.21,2.59-8.44,3.3-12.82
		c0.55-3.39,0.79-6.8,1.01-10.22c0.31-4.86,0.21-9.72,0.31-14.58c0.18-8.26,1.09-16.43,3.09-24.47c0.73-2.94,1.79-5.78,2.76-8.65
		c2.04-6.08,4.81-11.85,7.61-17.6c1.41-2.9,2.79-5.81,4.4-8.61c0.4-0.69,0.8-1.37,1.21-2.05c0.05-0.09,0.11-0.17,0.16-0.25
		c0.42-0.59,0.9-1.09,1.7-1c0.85,0.1,1.26,0.72,1.54,1.44c0.11,0.27,0.14,0.58,0.16,0.87c0.22,2.77,0.39,5.54,0.64,8.31
		c0.61,6.78,0.74,13.57,0.55,20.37c-0.08,2.98-0.1,5.95-0.36,8.92c-0.48,5.41-1.52,10.71-3.18,15.88
		c-1.77,5.54-4.02,10.89-6.95,15.93c-1.62,2.79-3.33,5.52-5.15,8.18c-1.95,2.83-3.61,5.8-4.81,9.04c-1.56,4.2-2.76,8.49-3.64,12.88
		c-0.35,1.75-0.72,3.5-1.29,5.2c-0.35,1.04-0.3,1.98,0.12,3.02c2.4,5.94,4.55,11.96,6.53,18.05c1.87,5.76,3.79,11.5,5.76,17.22
		c2.22,6.43,4.83,12.71,7.72,18.87c0.36,0.76,0.72,1.52,1.1,2.28c0.03,0.07,0.16,0.13,0.24,0.12s0.19-0.09,0.22-0.16
		c0.14-0.42,0.28-0.85,0.39-1.28c1.08-4.08,1.83-8.23,2.58-12.38c0.62-3.47,1.03-6.97,1.32-10.48c0.23-2.78,0.2-5.55,0.08-8.33
		c-0.15-3.42-0.39-6.84-0.55-10.26c-0.15-3.17-0.26-6.35-0.01-9.52c0.55-7.04,2.23-13.8,5.04-20.27c0.83-1.91,1.76-3.78,2.67-5.65
		c0.85-1.74,1.61-3.51,2.34-5.3c1.55-3.81,3.2-7.59,4.79-11.38c0.61-1.46,1.16-2.95,1.75-4.43c0.15-0.37,0.28-0.75,0.49-1.08
		c0.51-0.79,1.6-0.76,2.1,0.04c0.33,0.53,0.38,1.12,0.43,1.71c0.25,2.92,0.53,5.83,0.72,8.75c0.37,5.54,0.66,11.09,0.75,16.65
		c0.04,2.33,0.15,4.66,0.19,6.99c0.05,3.63-0.21,7.24-0.56,10.85c-0.39,4.05-0.87,8.09-1.62,12.09c-0.35,1.86-0.78,3.69-1.38,5.48
		c-1.48,4.43-3.1,8.8-5.21,12.97c-1.5,2.97-3.23,5.81-4.87,8.7c-1.23,2.16-2.6,4.22-3.88,6.35c-0.41,0.68-0.82,1.36-1.22,2.05
		c-0.4,0.69-0.64,1.44-0.76,2.24c-0.29,2.06-0.62,4.12-0.93,6.18C115.08,197.56,115.14,197.65,115.17,197.73z M58.82,104.86
		c0.94,1.39,1.84,2.82,2.83,4.18c3.53,4.85,7.11,9.67,10.64,14.52c4.85,6.68,8.05,14.11,9.76,22.17c0.86,4.05,1.19,8.14,0.75,12.28
		c-0.13,1.23-0.21,2.47-0.34,3.7c-0.1,0.96,0.02,1.86,0.34,2.78c0.58,1.63,1.1,3.29,1.63,4.95c0.72,2.27,1.56,4.5,2.69,6.61
		c0.28,0.53,0.6,1.03,1.07,1.41c1.92,1.57,3.68,3.33,5.52,4.99c2.03,1.83,3.97,3.73,5.86,5.71c0.05,0.05,0.16,0.03,0.25,0.05
		c0.14-0.31-0.04-0.58-0.13-0.84c-0.54-1.54-1.1-3.08-1.65-4.62c-1.95-5.47-4.03-10.89-5.81-16.41c-1.47-4.58-2.91-9.17-4.32-13.77
		c-1.16-3.79-2.3-7.6-3.37-11.42c-1.18-4.2-2.26-8.43-3.4-12.65c-0.12-0.43-0.24-0.87-0.45-1.25c-1.43-2.61-2.95-5.17-4.8-7.51
		c-2.03-2.57-4.13-5.08-6.61-7.24c-0.34-0.29-0.62-0.64-0.95-0.95c-0.43-0.41-0.86-0.82-1.33-1.19c-1.21-0.95-2.42-1.9-3.66-2.8
		C61.92,106.53,60.51,105.52,58.82,104.86z M119.3,290.44c0.22-0.22,0.17-0.46,0.17-0.68c-0.06-4.12-0.12-8.23-0.19-12.35
		c-0.02-1.19-0.07-2.38-0.08-3.57c-0.01-0.88-0.27-1.62-0.88-2.29c-0.67-0.73-1.25-1.54-1.85-2.33c-2.67-3.53-5.03-7.25-6.95-11.24
		c-2.02-4.19-3.26-8.62-4.19-13.15c-0.07-0.34-0.14-0.68-0.24-1.01c-0.02-0.06-0.15-0.09-0.23-0.11c-0.02-0.01-0.09,0.05-0.1,0.09
		c-0.06,0.24-0.13,0.48-0.15,0.72c-0.16,1.48-0.29,2.96-0.48,4.44c-0.16,1.21-0.02,2.34,0.39,3.5c0.88,2.49,1.48,5.07,1.63,7.69
		c0.12,2.08,0.86,3.77,2.01,5.45c3.22,4.74,5.76,9.84,7.73,15.22C117.02,284,118.13,287.18,119.3,290.44z M126.84,281.92
		c-0.04,0.03-0.11,0.06-0.11,0.09c-0.41,9.32-1.14,18.62-1.79,27.92c-0.01,0.08,0.07,0.17,0.15,0.33c0.4-0.32,0.65-0.73,0.89-1.14
		c0.84-1.4,1.71-2.79,2.54-4.2c1.39-2.34,2.74-4.72,4.16-7.04c0.56-0.92,0.68-1.82,0.44-2.84c-1.11-4.64-2.9-8.96-5.85-12.75
		C127.16,282.13,127.08,281.92,126.84,281.92z"/>
</g>
</svg>
