<?xml version="1.0" encoding="UTF-8"?>
<svg xmlns="http://www.w3.org/2000/svg" xmlns:xlink="http://www.w3.org/1999/xlink" viewBox="0 0 334.95 89.72">
  <defs>
    <style>
      .cls-1 {
        fill: #b87550;
      }

      .cls-1, .cls-2 {
        font-family: Pristina-Regular, Pristina;
        font-size: 30.58px;
      }

      .cls-3 {
        fill: url(#linear-gradient);
      }

      .cls-3, .cls-4, .cls-5, .cls-6, .cls-7, .cls-8, .cls-9, .cls-10 {
        stroke-width: 0px;
      }

      .cls-11 {
        isolation: isolate;
      }

      .cls-2 {
        fill: #fff;
      }

      .cls-4 {
        fill: #efdbb9;
      }

      .cls-4, .cls-12 {
        mix-blend-mode: multiply;
      }

      .cls-5 {
        fill: url(#linear-gradient-2);
      }

      .cls-13, .cls-8 {
        mix-blend-mode: screen;
      }

      .cls-6 {
        fill: url(#linear-gradient-3);
      }

      .cls-7 {
        fill: url(#radial-gradient);
      }

      .cls-8, .cls-9 {
        fill: #404bff;
      }

      .cls-10 {
        fill: url(#linear-gradient-4);
      }
    </style>
    <linearGradient id="linear-gradient" x1="0" y1="53.04" x2="97.65" y2="53.04" gradientUnits="userSpaceOnUse">
      <stop offset="0" stop-color="#f8ce54"/>
      <stop offset="1" stop-color="#b6953c"/>
    </linearGradient>
    <linearGradient id="linear-gradient-2" x1="68.88" y1="68.51" x2="68.88" y2="21.01" gradientUnits="userSpaceOnUse">
      <stop offset="0" stop-color="#93803a"/>
      <stop offset=".13" stop-color="#917d37"/>
      <stop offset=".73" stop-color="#8e7732"/>
    </linearGradient>
    <linearGradient id="linear-gradient-3" x1="237.29" y1="53.04" x2="334.95" y2="53.04" gradientUnits="userSpaceOnUse">
      <stop offset="0" stop-color="#b6953c"/>
      <stop offset="1" stop-color="#f8ce54"/>
    </linearGradient>
    <linearGradient id="linear-gradient-4" x1="266.07" x2="266.07" xlink:href="#linear-gradient-2"/>
    <radialGradient id="radial-gradient" cx="167.47" cy="30.16" fx="167.47" fy="30.16" r="95.3" gradientUnits="userSpaceOnUse">
      <stop offset="0" stop-color="#f8ce54"/>
      <stop offset="1" stop-color="#eec852"/>
    </radialGradient>
  </defs>
  <g class="cls-11">
    <g id="OBJECTS">
      <g>
        <path class="cls-4" d="m334.95,43.9c-13.26-3.73-26.64-6.98-40.1-9.81,0,0,0-.02,0-.03h0c1.32-5.28,2.65-10.55,3.97-15.83C212.39.1,122.56.1,36.13,18.24c1.32,5.28,2.65,10.55,3.97,15.83h0s0,.02,0,.03c-13.46,2.82-26.84,6.08-40.1,9.81,8.38,6,16.52,12.16,24.4,18.48-3.28,9.1-6.28,18.22-8.99,27.34,27-7.59,54.5-13.12,82.24-16.58-.8-5.36-1.6-10.72-2.4-16.08,47.92-5.97,96.51-5.97,144.43,0-.8,5.36-1.6,10.72-2.4,16.08,27.74,3.46,55.24,8.98,82.24,16.58-2.71-9.12-5.7-18.24-8.99-27.34,7.88-6.31,16.02-12.48,24.4-18.48Z"/>
        <g>
          <g>
            <path class="cls-3" d="m97.65,68.51c-27.74,3.46-55.24,8.98-82.24,16.58,2.71-9.12,5.7-18.24,8.99-27.34-7.88-6.31-16.02-12.48-24.4-18.48,29.73-8.36,60.03-14.45,90.58-18.26,2.36,15.83,4.72,31.67,7.08,47.5Z"/>
            <path class="cls-8" d="m22.25,79.95l-.23-.87c.87-.23,1.74-.46,2.61-.69l.23.87c-.87.23-1.74.46-2.61.69Zm5.22-1.36l-.22-.87c.87-.22,1.75-.44,2.62-.66l.22.87c-.87.22-1.74.44-2.61.66Zm5.23-1.31l-.21-.87c.87-.21,1.75-.43,2.62-.64l.21.87c-.87.21-1.75.42-2.62.64Zm5.24-1.26l-.21-.88c.88-.21,1.75-.41,2.63-.61l.2.88c-.88.2-1.75.4-2.63.61Zm5.26-1.21l-.2-.88c.88-.2,1.76-.39,2.64-.59l.19.88c-.88.19-1.76.39-2.63.59Zm5.27-1.16l-.19-.88c.88-.19,1.76-.38,2.64-.56l.18.88c-.88.18-1.76.37-2.64.56Zm5.28-1.11l-.18-.88c.88-.18,1.76-.36,2.65-.54l.18.88c-.88.18-1.76.35-2.64.53Zm5.29-1.06l-.17-.88c.88-.17,1.77-.34,2.65-.51l.17.88c-.88.17-1.77.34-2.65.51Zm5.3-1.01l-.16-.88c.88-.16,1.77-.33,2.66-.49l.16.89c-.88.16-1.77.32-2.65.48Zm5.31-.96l-.15-.89c.89-.16,1.77-.31,2.66-.46l.15.89c-.89.15-1.77.3-2.66.46Zm5.32-.91l-.15-.89c.89-.15,1.78-.29,2.66-.43l.14.89c-.89.14-1.77.29-2.66.43Zm5.32-.86l-.14-.89c.89-.14,1.78-.27,2.67-.41l.13.89c-.89.13-1.78.27-2.66.41Zm5.33-.8l-.13-.89c.89-.13,1.78-.26,2.67-.38l.13.89c-.89.13-1.78.25-2.67.38Zm5.34-.75l-.12-.89c.89-.12,1.78-.24,2.68-.36l.12.89c-.89.12-1.78.24-2.67.36Z"/>
            <path class="cls-8" d="m8.29,41.18l-.23-.87c.87-.23,1.74-.46,2.61-.69l.23.87c-.87.23-1.74.46-2.6.69Zm5.21-1.37l-.22-.87c.87-.23,1.74-.45,2.62-.67l.22.87c-.87.22-1.74.44-2.61.67Zm5.23-1.33l-.22-.87c.87-.22,1.75-.43,2.62-.65l.21.87c-.87.21-1.75.43-2.62.65Zm5.24-1.28l-.21-.87c.88-.21,1.75-.42,2.63-.62l.21.88c-.87.21-1.75.41-2.62.62Zm5.25-1.23l-.2-.88c.88-.2,1.75-.4,2.63-.6l.2.88c-.88.2-1.75.4-2.63.6Zm5.26-1.19l-.19-.88c.88-.19,1.76-.39,2.64-.58l.19.88c-.88.19-1.76.38-2.63.58Zm5.27-1.14l-.19-.88c.88-.19,1.76-.37,2.64-.55l.18.88c-.88.18-1.76.37-2.64.55Zm5.28-1.09l-.18-.88c.88-.18,1.76-.36,2.65-.53l.17.88c-.88.17-1.76.35-2.64.53Zm5.29-1.05l-.17-.88c.88-.17,1.77-.34,2.65-.51l.17.88c-.88.17-1.77.34-2.65.51Zm5.3-1l-.16-.88c.89-.16,1.77-.32,2.66-.48l.16.89c-.88.16-1.77.32-2.65.48Zm5.31-.96l-.16-.89c.89-.16,1.77-.31,2.66-.46l.15.89c-.89.15-1.77.31-2.66.46Zm5.31-.91l-.15-.89c.89-.15,1.78-.29,2.66-.44l.14.89c-.89.14-1.77.29-2.66.44Zm5.32-.86l-.14-.89c.89-.14,1.78-.28,2.67-.41l.14.89c-.89.14-1.78.27-2.66.41Zm5.33-.82l-.13-.89c.89-.13,1.78-.26,2.67-.39l.13.89c-.89.13-1.78.26-2.67.39Zm5.34-.77l-.12-.89c.89-.12,1.78-.25,2.68-.37l.12.89c-.89.12-1.78.24-2.67.37Zm5.39-.73l-.11-.44-.04-.45.15.89Z"/>
            <path class="cls-5" d="m97.65,68.51c-16.16-3.45-32.79-6.2-49.81-8.18-2.58-10.3-5.17-20.6-7.75-30.9,16.71-3.51,33.56-6.32,50.48-8.42,2.36,15.83,4.72,31.67,7.08,47.5Z"/>
            <path class="cls-6" d="m237.29,68.51c27.74,3.46,55.24,8.98,82.24,16.58-2.71-9.12-5.7-18.24-8.99-27.34,7.88-6.31,16.02-12.48,24.4-18.48-29.73-8.36-60.03-14.45-90.58-18.26-2.36,15.83-4.72,31.67-7.08,47.5Z"/>
            <g class="cls-13">
              <path class="cls-9" d="m326.68,41.19l.08-.45.13-.43-.13.43.14-.43-.21.87Zm-2.65-.7c-.87-.23-1.74-.46-2.61-.68l.22-.87c.87.23,1.74.45,2.61.68l-.23.87Zm-5.22-1.35c-.87-.22-1.74-.44-2.62-.66l.22-.87c.87.22,1.75.44,2.62.66l-.22.87Zm-5.23-1.3c-.87-.21-1.75-.42-2.62-.63l.21-.87c.88.21,1.75.42,2.63.64l-.21.87Zm-5.25-1.26c-.87-.21-1.75-.41-2.63-.61l.2-.88c.88.2,1.75.41,2.63.61l-.21.88Zm-5.26-1.21c-.88-.2-1.75-.39-2.63-.59l.19-.88c.88.19,1.76.39,2.64.59l-.2.88Zm-5.27-1.16c-.88-.19-1.76-.38-2.64-.56l.19-.88c.88.19,1.76.38,2.64.57l-.19.88Zm-5.28-1.12c-.88-.18-1.76-.36-2.64-.54l.18-.88c.88.18,1.76.36,2.64.54l-.18.88Zm-5.28-1.07c-.88-.17-1.76-.35-2.65-.52l.17-.88c.88.17,1.77.34,2.65.52l-.17.88Zm-5.3-1.02c-.88-.17-1.77-.33-2.65-.49l.16-.88c.89.16,1.77.33,2.65.5l-.17.88Zm-5.3-.98c-.88-.16-1.77-.32-2.65-.47l.15-.89c.89.16,1.77.31,2.66.47l-.16.89Zm-5.31-.93c-.89-.15-1.77-.3-2.66-.45l.15-.89c.89.15,1.78.3,2.66.45l-.15.89Zm-5.32-.89c-.89-.14-1.77-.29-2.66-.42l.14-.89c.89.14,1.78.28,2.67.43l-.14.89Zm-5.33-.84c-.89-.14-1.78-.27-2.67-.4l.13-.89c.89.13,1.78.27,2.67.4l-.14.89Zm-5.33-.79c-.89-.13-1.78-.25-2.67-.38l.12-.89c.89.12,1.78.25,2.67.38l-.13.89Zm-5.34-.74c-.89-.12-1.78-.24-2.67-.35l.12-.89c.89.12,1.78.23,2.68.35l-.12.89Z"/>
            </g>
            <path class="cls-8" d="m314.07,80.32c-.87-.23-1.73-.46-2.6-.69l.23-.87c.87.23,1.74.46,2.61.69l-.23.87Zm-5.21-1.37c-.87-.22-1.74-.45-2.61-.67l.22-.87c.87.22,1.75.44,2.62.67l-.22.87Zm-5.23-1.32c-.87-.22-1.75-.43-2.62-.64l.21-.87c.88.21,1.75.43,2.62.64l-.22.87Zm-5.24-1.27c-.87-.21-1.75-.41-2.62-.62l.2-.88c.88.2,1.75.41,2.63.62l-.21.87Zm-5.25-1.22c-.88-.2-1.75-.4-2.63-.59l.19-.88c.88.2,1.76.39,2.63.59l-.2.88Zm-5.26-1.17c-.88-.19-1.76-.38-2.63-.57l.19-.88c.88.19,1.76.38,2.64.57l-.19.88Zm-5.27-1.12c-.88-.18-1.76-.36-2.64-.54l.18-.88c.88.18,1.76.36,2.64.54l-.18.88Zm-5.28-1.07c-.88-.17-1.76-.35-2.65-.52l.17-.88c.88.17,1.77.34,2.65.52l-.17.88Zm-5.29-1.02c-.88-.17-1.77-.33-2.65-.49l.16-.88c.89.16,1.77.33,2.65.49l-.17.88Zm-5.3-.97c-.88-.16-1.77-.31-2.65-.47l.15-.89c.89.15,1.77.31,2.66.47l-.16.89Zm-5.31-.92c-.89-.15-1.77-.3-2.66-.44l.14-.89c.89.15,1.78.29,2.66.44l-.15.89Zm-5.32-.87c-.89-.14-1.78-.28-2.66-.41l.14-.89c.89.14,1.78.27,2.67.42l-.14.89Zm-5.33-.82c-.89-.13-1.78-.26-2.67-.39l.13-.89c.89.13,1.78.26,2.67.39l-.13.89Zm-5.34-.77c-.89-.12-1.78-.25-2.67-.36l.12-.89c.89.12,1.78.24,2.68.36l-.12.89Z"/>
            <path class="cls-10" d="m237.29,68.51c16.16-3.45,32.79-6.2,49.81-8.18,2.58-10.3,5.17-20.6,7.75-30.9-16.71-3.51-33.56-6.32-50.48-8.42-2.36,15.83-4.72,31.67-7.08,47.5Z"/>
            <path class="cls-7" d="m287.1,60.33c-78.72-16.52-160.53-16.52-239.25,0-3.91-15.57-7.82-31.15-11.72-46.72,86.44-18.14,176.26-18.14,262.7,0-3.91,15.57-7.82,31.15-11.72,46.72Z"/>
            <g>
              <rect class="cls-8" x="283.34" y="55.3" width=".9" height="1.35" transform="translate(172.64 323.02) rotate(-78.56)"/>
              <path class="cls-8" d="m280.42,55.76c-.87-.17-1.75-.34-2.62-.51l.17-.88c.88.17,1.75.34,2.63.51l-.17.88Zm-225.88,0l-.17-.88c.88-.17,1.75-.34,2.63-.51l.17.88c-.88.17-1.75.34-2.63.51Zm220.63-1c-.88-.16-1.75-.33-2.63-.49l.16-.88c.88.16,1.76.32,2.63.49l-.17.88Zm-215.37,0l-.17-.88c.88-.16,1.76-.33,2.63-.49l.16.88c-.88.16-1.75.32-2.63.49Zm210.11-.96c-.88-.16-1.76-.31-2.63-.46l.15-.89c.88.15,1.76.31,2.64.46l-.16.89Zm-204.85,0l-.16-.89c.88-.16,1.76-.31,2.64-.46l.15.89c-.88.15-1.76.31-2.63.46Zm199.58-.91c-.88-.15-1.76-.29-2.64-.44l.14-.89c.88.14,1.76.29,2.64.44l-.15.89Zm-194.31,0l-.15-.89c.88-.15,1.76-.29,2.64-.44l.14.89c-.88.14-1.76.29-2.64.44Zm189.03-.86c-.88-.14-1.76-.28-2.64-.41l.14-.89c.88.14,1.76.27,2.65.41l-.14.89Zm-183.75,0l-.14-.89c.88-.14,1.76-.28,2.65-.41l.14.89c-.88.14-1.76.27-2.64.41Zm178.47-.81c-.88-.13-1.76-.26-2.64-.39l.13-.89c.88.13,1.77.26,2.65.39l-.13.89Zm-173.18,0l-.13-.89c.88-.13,1.77-.26,2.65-.39l.13.89c-.88.13-1.76.26-2.65.39Zm167.89-.76c-.88-.12-1.77-.24-2.65-.36l.12-.89c.88.12,1.77.24,2.65.36l-.12.89Zm-162.59,0l-.12-.89c.88-.12,1.77-.25,2.65-.36l.12.89c-.88.12-1.77.24-2.65.36Zm157.3-.71c-.88-.12-1.77-.23-2.65-.34l.11-.89c.89.11,1.77.22,2.66.34l-.12.89Zm-151.99,0l-.12-.89c.89-.12,1.77-.23,2.66-.34l.11.89c-.88.11-1.77.22-2.65.34Zm146.69-.66c-.88-.11-1.77-.21-2.65-.32l.1-.89c.89.1,1.77.21,2.66.32l-.11.89Zm-141.38,0l-.11-.89c.89-.11,1.77-.21,2.66-.32l.1.89c-.89.1-1.77.21-2.66.32Zm136.07-.62c-.89-.1-1.77-.2-2.66-.29l.1-.89c.89.1,1.77.19,2.66.29l-.1.89Zm-130.76,0l-.1-.89c.89-.1,1.77-.2,2.66-.29l.1.89c-.89.1-1.77.19-2.66.29Zm125.44-.57c-.89-.09-1.77-.18-2.66-.27l.09-.9c.89.09,1.78.18,2.66.27l-.09.89Zm-120.12,0l-.09-.9c.89-.09,1.78-.18,2.67-.27l.09.89c-.89.09-1.77.18-2.66.27Zm114.8-.52c-.89-.08-1.77-.16-2.66-.24l.08-.9c.89.08,1.78.16,2.67.24l-.08.9Zm-109.48,0l-.08-.9c.89-.08,1.78-.16,2.67-.24l.08.9c-.89.08-1.78.16-2.66.24Zm104.15-.47c-.89-.08-1.78-.15-2.67-.22l.07-.9c.89.07,1.78.14,2.67.22l-.08.9Zm-98.82,0l-.08-.9c.89-.08,1.78-.15,2.67-.22l.07.9c-.89.07-1.78.14-2.67.22Zm93.49-.42c-.89-.07-1.78-.13-2.67-.19l.06-.9c.89.06,1.78.13,2.67.2l-.07.9Zm-88.16,0l-.07-.9c.89-.07,1.78-.13,2.67-.2l.06.9c-.89.06-1.78.13-2.67.19Zm82.83-.38c-.89-.06-1.78-.12-2.67-.17l.05-.9c.89.05,1.78.11,2.67.17l-.06.9Zm-77.49,0l-.06-.9c.89-.06,1.78-.12,2.67-.17l.06.9c-.89.05-1.78.11-2.67.17Zm72.15-.33c-.89-.05-1.78-.1-2.67-.15l.05-.9c.89.05,1.78.1,2.67.15l-.05.9Zm-66.82,0l-.05-.9c.89-.05,1.78-.1,2.67-.15l.05.9c-.89.05-1.78.09-2.67.15Zm61.47-.28c-.89-.04-1.78-.08-2.67-.12l.04-.9c.89.04,1.78.08,2.68.12l-.04.9Zm-56.13,0l-.04-.9c.89-.04,1.78-.08,2.68-.12l.04.9c-.89.04-1.78.08-2.67.12Zm50.79-.23c-.89-.03-1.78-.07-2.67-.1l.03-.9c.89.03,1.78.06,2.68.1l-.04.9Zm-45.45,0l-.04-.9c.89-.03,1.79-.07,2.68-.1l.03.9c-.89.03-1.78.06-2.67.1Zm40.1-.18c-.89-.03-1.78-.05-2.67-.07l.02-.9c.89.02,1.78.05,2.68.07l-.03.9Zm-34.76,0l-.03-.9c.89-.03,1.78-.05,2.68-.07l.02.9c-.89.02-1.78.05-2.67.07Zm29.41-.13c-.89-.02-1.78-.03-2.67-.05v-.9c.91.01,1.8.03,2.69.05l-.02.9Zm-24.06,0l-.02-.9c.89-.02,1.78-.03,2.68-.05v.9c-.88.01-1.77.03-2.66.05Zm18.72-.08c-.89-.01-1.78-.02-2.67-.02v-.9c.9,0,1.79.01,2.68.02v.9Zm-13.37,0v-.9c.88-.01,1.77-.02,2.67-.02v.9c-.88,0-1.78.01-2.67.02Zm8.02-.04h-1.35s-1.32,0-1.32,0v-.9s1.32,0,1.32,0h1.35s0,.9,0,.9Z"/>
              <rect class="cls-8" x="50.49" y="55.52" width="1.35" height=".9" transform="translate(-10.17 11.38) rotate(-11.55)"/>
            </g>
            <g>
              <rect class="cls-8" x="40.51" y="15.78" width="1.35" height=".9" transform="translate(-2.42 8.58) rotate(-11.55)"/>
              <path class="cls-8" d="m44.6,16.01l-.17-.88c.89-.18,1.78-.35,2.67-.52l.17.88c-.89.17-1.78.34-2.67.52Zm245.74,0c-.89-.18-1.78-.35-2.67-.52l.17-.88c.89.17,1.78.34,2.67.52l-.17.88Zm-240.4-1.02l-.17-.88c.89-.17,1.78-.33,2.67-.5l.16.88c-.89.16-1.78.33-2.67.5Zm235.06,0c-.89-.17-1.78-.33-2.67-.5l.16-.88c.89.16,1.78.33,2.68.5l-.17.88Zm-229.72-.98l-.16-.89c.89-.16,1.79-.32,2.68-.47l.15.89c-.89.16-1.78.31-2.68.47Zm224.37,0c-.89-.16-1.78-.32-2.68-.47l.15-.89c.89.16,1.79.31,2.68.47l-.16.89Zm-219.02-.93l-.15-.89c.89-.15,1.79-.3,2.68-.45l.15.89c-.89.15-1.79.3-2.68.45Zm213.66,0c-.89-.15-1.79-.3-2.68-.45l.15-.89c.89.15,1.79.3,2.68.45l-.15.89Zm-208.3-.89l-.14-.89c.89-.14,1.79-.29,2.69-.43l.14.89c-.9.14-1.79.28-2.68.43Zm202.94,0c-.89-.14-1.79-.29-2.68-.43l.14-.89c.9.14,1.79.28,2.69.43l-.14.89Zm-197.57-.84l-.14-.89c.9-.14,1.79-.27,2.69-.4l.13.89c-.9.13-1.79.27-2.69.4Zm192.2,0c-.9-.14-1.79-.27-2.69-.4l.13-.89c.9.13,1.8.27,2.69.4l-.14.89Zm-186.83-.79l-.13-.89c.9-.13,1.8-.26,2.69-.38l.12.89c-.9.13-1.79.25-2.69.38Zm181.45,0c-.9-.13-1.79-.26-2.69-.38l.12-.89c.9.13,1.8.25,2.69.38l-.13.89Zm-176.07-.75l-.12-.89c.9-.12,1.8-.24,2.7-.36l.12.89c-.9.12-1.8.24-2.69.36Zm170.68,0c-.9-.12-1.8-.24-2.69-.36l.12-.89c.9.12,1.8.24,2.7.36l-.12.89Zm-165.3-.7l-.11-.89c.9-.11,1.8-.23,2.7-.34l.11.89c-.9.11-1.8.22-2.7.34Zm159.91,0c-.9-.11-1.8-.23-2.7-.34l.11-.89c.9.11,1.8.22,2.7.34l-.11.89Zm-154.51-.66l-.11-.89c.9-.11,1.8-.21,2.7-.31l.1.89c-.9.1-1.8.21-2.7.31Zm149.12,0c-.9-.11-1.8-.21-2.7-.31l.1-.89c.9.1,1.8.21,2.7.31l-.11.89Zm-143.72-.61l-.1-.89c.9-.1,1.8-.19,2.71-.29l.09.89c-.9.09-1.8.19-2.7.29Zm138.32,0c-.9-.1-1.8-.19-2.7-.29l.09-.89c.9.09,1.8.19,2.71.29l-.1.89Zm-132.91-.56l-.09-.89c.9-.09,1.8-.18,2.71-.27l.09.89c-.9.09-1.8.18-2.7.27Zm127.51,0c-.9-.09-1.8-.18-2.7-.27l.09-.89c.9.09,1.8.18,2.71.27l-.09.89Zm-122.1-.52l-.08-.9c.9-.08,1.81-.16,2.71-.24l.08.9c-.9.08-1.8.16-2.71.24Zm116.69,0c-.9-.08-1.8-.16-2.71-.24l.08-.9c.9.08,1.81.16,2.71.24l-.08.9Zm-111.27-.47l-.07-.9c.9-.08,1.81-.15,2.71-.22l.07.9c-.9.07-1.81.14-2.71.22Zm105.86,0c-.9-.07-1.81-.15-2.71-.22l.07-.9c.9.07,1.81.14,2.71.22l-.07.9Zm-100.44-.43l-.07-.9c.9-.07,1.81-.13,2.71-.2l.06.9c-.9.06-1.81.13-2.71.2Zm95.02,0c-.9-.07-1.81-.13-2.71-.2l.06-.9c.91.06,1.81.13,2.71.2l-.07.9Zm-89.6-.38l-.06-.9c.9-.06,1.81-.12,2.72-.17l.06.9c-.9.06-1.81.11-2.71.17Zm84.18,0c-.9-.06-1.81-.12-2.71-.17l.06-.9c.9.06,1.81.11,2.72.17l-.06.9Zm-78.76-.33l-.05-.9c.91-.05,1.81-.1,2.72-.15l.05.9c-.9.05-1.81.1-2.71.15Zm73.33,0c-.9-.05-1.81-.1-2.71-.15l.05-.9c.91.05,1.81.1,2.72.15l-.05.9Zm-67.9-.29l-.04-.9c.91-.04,1.81-.09,2.72-.13l.04.9c-.9.04-1.81.08-2.71.13Zm62.48,0c-.9-.04-1.81-.09-2.71-.13l.04-.9c.91.04,1.81.08,2.72.13l-.04.9Zm-57.05-.24l-.04-.9c.91-.04,1.81-.07,2.72-.1l.03.9c-.91.03-1.81.07-2.72.1Zm51.62,0c-.91-.04-1.81-.07-2.72-.1l.03-.9c.91.03,1.81.07,2.72.1l-.04.9Zm-46.19-.2l-.03-.9c.91-.03,1.81-.06,2.72-.08l.03.9c-.91.03-1.81.05-2.72.08Zm40.76,0c-.91-.03-1.81-.06-2.72-.08l.02-.9c.91.03,1.81.05,2.72.08l-.03.9Zm-35.32-.15l-.02-.9c.91-.02,1.81-.04,2.72-.06l.02.9c-.91.02-1.81.04-2.72.06Zm29.89,0c-.91-.02-1.81-.04-2.72-.06l.02-.9c.91.02,1.81.04,2.72.06l-.02.9Zm-24.45-.1v-.9c.89-.01,1.8-.03,2.71-.04v.9c-.9,0-1.8.02-2.71.04Zm19.02,0c-.91-.01-1.81-.02-2.72-.03v-.9c.92,0,1.82.02,2.73.03v.9Zm-13.59-.06v-.9c.9,0,1.81,0,2.72-.01v.9c-.9,0-1.81,0-2.72.01Zm8.15,0c-.91,0-1.81,0-2.72-.01v-.9c.91,0,1.82,0,2.72.01v.9Z"/>
              <rect class="cls-8" x="293.31" y="15.56" width=".9" height="1.35" transform="translate(219.58 300.94) rotate(-78.56)"/>
            </g>
          </g>
          <g>
            <g class="cls-12">
              <text class="cls-1" transform="translate(116.4 37.91) rotate(-4.16)"><tspan x="0" y="0">C</tspan></text>
              <text class="cls-1" transform="translate(131.91 36.82) rotate(-2.98)"><tspan x="0" y="0">e</tspan></text>
              <text class="cls-1" transform="translate(140.96 36.35) rotate(-2.08)"><tspan x="0" y="0">r</tspan></text>
              <text class="cls-1" transform="translate(150.63 36) rotate(-1.18)"><tspan x="0" y="0">e</tspan></text>
              <text class="cls-1" transform="translate(159.75 35.75) rotate(.2)"><tspan x="0" y="0">m</tspan></text>
              <text class="cls-1" transform="translate(179.57 35.88) rotate(1.67)"><tspan x="0" y="0">o</tspan></text>
              <text class="cls-1" transform="translate(190.32 36.18) rotate(2.8)"><tspan x="0" y="0">n</tspan></text>
              <text class="cls-1" transform="translate(203.23 36.84) rotate(3.7)"><tspan x="0" y="0">i</tspan></text>
              <text class="cls-1" transform="translate(209.11 37.2) rotate(4.56)"><tspan x="0" y="0">a</tspan></text>
            </g>
            <text class="cls-2" transform="translate(116.4 36.41) rotate(-4.16)"><tspan x="0" y="0">C</tspan></text>
            <text class="cls-2" transform="translate(131.91 35.32) rotate(-2.98)"><tspan x="0" y="0">e</tspan></text>
            <text class="cls-2" transform="translate(140.96 34.85) rotate(-2.08)"><tspan x="0" y="0">r</tspan></text>
            <text class="cls-2" transform="translate(150.63 34.5) rotate(-1.18)"><tspan x="0" y="0">e</tspan></text>
            <text class="cls-2" transform="translate(159.75 34.25) rotate(.2)"><tspan x="0" y="0">m</tspan></text>
            <text class="cls-2" transform="translate(179.57 34.38) rotate(1.67)"><tspan x="0" y="0">o</tspan></text>
            <text class="cls-2" transform="translate(190.32 34.68) rotate(2.8)"><tspan x="0" y="0">n</tspan></text>
            <text class="cls-2" transform="translate(203.23 35.34) rotate(3.7)"><tspan x="0" y="0">i</tspan></text>
            <text class="cls-2" transform="translate(209.11 35.7) rotate(4.56)"><tspan x="0" y="0">a</tspan></text>
          </g>
          <g class="cls-13">
            <polygon class="cls-9" points="53.89 39.64 50.64 42.18 50.6 38.05 47.18 35.75 51.1 34.43 52.24 30.47 54.69 33.79 58.81 33.64 56.42 37 57.83 40.88 53.89 39.64"/>
            <polygon class="cls-9" points="282.38 39.64 285.63 42.18 285.67 38.05 289.09 35.75 285.18 34.43 284.04 30.47 281.58 33.79 277.46 33.64 279.85 37 278.44 40.88 282.38 39.64"/>
          </g>
        </g>
      </g>
    </g>
  </g>
</svg>