<?xml version="1.0" encoding="utf-8"?>
<!-- Generator: Adobe Illustrator 27.7.0, SVG Export Plug-In . SVG Version: 6.00 Build 0)  -->
<svg version="1.1" id="Capa_1" xmlns="http://www.w3.org/2000/svg" xmlns:xlink="http://www.w3.org/1999/xlink" x="0px" y="0px"
	 viewBox="0 0 384 342.3" style="enable-background:new 0 0 384 342.3;" xml:space="preserve">
<style type="text/css">
	.st0{fill:#FFE7B6;}
</style>
<path class="st0" d="M0,215.3c1-4.5,2.1-9.1,3-13.6c2.8-14.4,8.9-27.3,17.3-39.1c11.5-16.4,26.1-29.4,44.4-38
	c12.9-6,26.4-9.7,40.8-10.7c22.4-1.6,43.3,2.8,62.9,13.2c7.3,3.9,13.8,9.5,20.6,14.3c1,0.7,2,1.4,3.1,2.1
	c8.8-8.6,18.7-15.1,29.7-19.9c9.9-4.3,20-7.9,30.9-8.8c4.9-0.4,9.8-1.4,14.6-1.4c27,0.3,51.6,7.7,73.1,24.8
	c20.9,16.6,34,38,40.6,63.6c1.2,4.7,2,9.6,3.1,14.3v24c-0.5,0.7-1.4,1.5-1.4,2.2c-0.9,12.5-4.8,24.2-10.4,35.4
	c-8.3,16.7-19.8,30.8-35,41.9c-18.1,13.3-38.2,20.9-60.5,22.4c-16.7,1.1-32.9-1.2-48.6-7.4c-12.2-4.9-23.4-11.4-33.2-20
	c-2.6-2.3-4.3-1.7-6.7,0c-7.8,5.5-15.4,11.6-23.8,16c-13.3,7-27.8,10.6-42.8,11.5c-14.1,0.8-28.1-0.5-41.7-4.9
	c-25-8.1-44.9-23.1-60-44.5c-8.3-11.8-14.4-24.9-17.1-39.3C2,248.9,1,244.5,0,240.1C0,231.8,0,223.6,0,215.3z M203.3,278.7
	C229.2,234.2,218,171.8,169,141C126,113.9,66.4,120.6,32.2,165.7C-0.6,209,4,272.2,52.3,309.7c40.5,31.4,95.8,26.7,131.3-6.4
	c-0.9-0.9-1.8-1.8-2.6-2.7c-0.8-1-1.6-2-2.3-3c-1.9,1.5-3.5,2.6-5,3.9c-14.8,12.3-31.9,19.2-50.8,20.9c-16.7,1.5-32.9-0.9-48.3-8.2
	c-17.9-8.4-32.3-21-42.2-38c-9.6-16.7-14.6-34.7-13.1-54.4c0.7-9.3,2.7-18.2,5.6-27c0.5-1.5,2.8-3.2,4.5-3.5c5.6-0.8,8,2.6,6,8.3
	c-5,14.7-6.4,29.7-3,44.8c4.6,21.1,15.7,38.4,33.4,51.1c12.7,9.1,26.9,14.4,42.4,15.4c16,1.1,31.3-2.3,45.5-10.1
	c6.7-3.7,13.2-7.8,18.2-13.7c-20.9-34.1-24.4-78.9-0.1-119.7c-5.9-6.3-13-10.9-20.7-14.7c-15.5-7.6-31.8-9.7-48.8-7.5
	c-18.3,2.3-33.8,10.3-46.8,23.1c-3.3,3.3-6.1,7.1-9.2,10.6c-2.5,2.7-6.5,3.4-8.5,1.4c-2.9-2.8-3.4-4.8-0.6-8.6
	c8.5-11.7,19-21.2,31.8-27.9c17-8.8,35-12.8,54.4-10.7c11.1,1.2,21.6,3.9,31.6,8.5c11.6,5.3,21.4,13,30,22.4
	c7.6,8.3,13.4,17.6,17.5,28.1c5.5,14.3,8,29,6.2,44.5c-1.2,10.2-3.2,20.2-7.8,29.4c-2.2,4.3-2,7.4,1.2,10.6
	C202.5,277.2,202.7,277.8,203.3,278.7L203.3,278.7z M204.6,157.7c1.5-1.1,3.1-2.2,4.4-3.3c16-13.5,34.7-20.5,55.4-21.3
	c8.8-0.4,17.9,0.2,26.4,2.3c27.6,6.7,48.8,22.6,62.3,47.9c8.6,16.1,12.3,33.3,10.7,51.8c-0.7,8.6-2.4,16.8-5.2,24.8
	c-1.4,4-4.3,5.9-7.4,4.9c-3.4-1.1-4.7-4.6-3.3-8.7c5.5-16.4,6.4-33.2,2-49.9c-4.8-18.4-15.2-33.7-30.5-45
	c-20.5-15.1-43.6-19.6-68.4-14.6c-15.2,3.1-28.4,10.3-39.3,21c22.6,40.4,22.6,80.4-0.1,120.8c3,2.4,6.1,5,9.3,7.4
	c12.4,9.2,26.4,14.3,41.6,15.4c8.5,0.6,17.3-0.3,25.6-2.2c20.2-4.5,36.2-15.7,48.6-32.2c2.1-2.9,6.1-3.9,8.6-2
	c3.2,2.5,3.7,5.8,0.8,8.9c-6.7,7-13.1,14.4-20.6,20.5c-13.6,11-29.6,17-46.9,18.5c-19,1.7-37.1-1.6-54.2-10.9
	c-17.4-9.5-30.9-23-39.7-40.6c-7.7-15.4-11.6-31.8-10.1-49.4c0.9-11.1,3-21.8,7.9-31.6c2.7-5.4,1.8-9-2.2-12.7
	c-25,40.8-16.4,100.4,28,133.2c49.2,36.4,114.5,21.8,146.7-26c30.6-45.4,20.8-113.6-34.6-145.9c-41.4-24.1-95.3-13.4-120,14
	C201.7,154.2,203.2,155.9,204.6,157.7L204.6,157.7z M191.8,257.2c7.2-19.4,7.4-38.8,0-58.3C184,218.2,184.1,237.7,191.8,257.2z"/>
<path class="st0" d="M132,37.8c-0.6-18,12.2-33.2,29.1-36.9c9.8-2.1,19.1-0.2,27.8,4.7c2.1,1.2,3.6,1.2,5.9-0.2
	c21.7-12.5,50.6-1.9,56.3,24.5c2.8,12.8-0.7,24.5-10.1,33.9c-14.6,14.8-29.3,29.4-44,44c-4.3,4.3-6.4,4.3-10.8,0
	c-14.3-14.3-28.7-28.6-42.9-43C135.8,57.4,131.4,48.4,132,37.8L132,37.8z M168.6,12.1c-1.4,0-3.4-0.4-5.1,0.1
	c-9.7,2.6-16.5,8.7-19.3,18.4c-2.7,9.5-0.2,18.2,6.6,25.2c12.6,12.9,25.4,25.4,38.1,38.3c2.2,2.3,3.5,2.2,5.6,0
	c12.7-12.9,25.6-25.7,38.4-38.5c9.7-9.7,9.8-26,0.4-35.7c-9.9-10.2-26.4-10.7-37-1.1c-3.5,3.2-5.6,3.2-9.2,0
	C181.9,14.1,176,11.6,168.6,12.1L168.6,12.1z"/>
</svg>
